<svg width="173" height="128" viewBox="0 0 173 128" fill="none" xmlns="http://www.w3.org/2000/svg">
<path fill-rule="evenodd" clip-rule="evenodd" d="M151.348 128C162.974 128 172.4 118.575 172.4 106.948C172.4 95.3219 162.974 85.8968 151.348 85.8968C139.721 85.8968 130.296 95.3219 130.296 106.948C130.296 118.575 139.721 128 151.348 128Z" fill="#EB001A"/>
<path fill-rule="evenodd" clip-rule="evenodd" d="M84.2065 84.2076L84.2065 63.1555C84.2065 51.6602 74.6507 42.1044 63.1554 42.1044C51.6601 42.1044 42.1033 51.6602 42.1033 63.1555L42.1033 84.2076L42.1033 126.311L8.39233e-05 126.311L8.11627e-05 63.1555C7.96444e-05 28.4202 28.4201 0.000103461 63.1554 0.000101943C97.8907 0.000100424 126.311 28.4202 126.311 63.1555L126.311 84.2076L84.2065 84.2076Z" fill="#FFBE98"/>
</svg>
