<svg width="212" height="32" viewBox="0 0 212 32" fill="none" xmlns="http://www.w3.org/2000/svg">
<path fill-rule="evenodd" clip-rule="evenodd" d="M36.1142 31.2715C38.8885 31.2715 41.1375 29.0225 41.1375 26.2482C41.1375 23.4739 38.8885 21.2249 36.1142 21.2249C33.3399 21.2249 31.0909 23.4739 31.0909 26.2482C31.0909 29.0225 33.3399 31.2715 36.1142 31.2715Z" fill="#EB001A"/>
<path fill-rule="evenodd" clip-rule="evenodd" d="M20.0931 20.8219L20.0931 15.7985C20.0931 13.0555 17.8129 10.7753 15.0699 10.7753C12.327 10.7753 10.0466 13.0555 10.0466 15.7985L10.0466 20.8219L10.0466 30.8684L1.90735e-06 30.8684L1.24862e-06 15.7985C8.86322e-07 7.51004 6.78151 0.728524 15.0699 0.728524C23.3584 0.728524 30.1399 7.51004 30.1399 15.7985L30.1399 20.8219L20.0931 20.8219Z" fill="#FFBE98"/>
<path d="M70.7273 11.9189C70.7273 11.8148 70.7481 11.7171 70.7898 11.626C70.8341 11.5322 70.8966 11.4515 70.9773 11.3838C71.058 11.3135 71.1557 11.2588 71.2703 11.2197C71.3848 11.1807 71.5138 11.1611 71.657 11.1611C71.8002 11.1611 71.9291 11.1807 72.0437 11.2197C72.1583 11.2588 72.2546 11.3135 72.3328 11.3838C72.4135 11.4515 72.4747 11.5322 72.5164 11.626C72.5606 11.7171 72.5828 11.8148 72.5828 11.9189C72.5828 12.0231 72.5606 12.1221 72.5164 12.2158C72.4747 12.307 72.4135 12.3864 72.3328 12.4541C72.2546 12.5218 72.1583 12.5752 72.0437 12.6143C71.9291 12.6559 71.8002 12.6768 71.657 12.6768C71.5138 12.6768 71.3848 12.6559 71.2703 12.6143C71.1557 12.5752 71.058 12.5218 70.9773 12.4541C70.8966 12.3864 70.8341 12.307 70.7898 12.2158C70.7481 12.1221 70.7273 12.0231 70.7273 11.9189Z" fill="#EB001A"/>
<path d="M68.6414 7.35645C68.5268 7.35645 68.4226 7.34082 68.3289 7.30957C68.2377 7.27572 68.1596 7.23145 68.0945 7.17676C68.0294 7.11947 67.9786 7.05436 67.9421 6.98145C67.9083 6.90592 67.8914 6.8265 67.8914 6.74316C67.8914 6.65723 67.9083 6.5778 67.9421 6.50488C67.9786 6.42936 68.0294 6.36426 68.0945 6.30957C68.1596 6.25488 68.2377 6.21191 68.3289 6.18066C68.4226 6.14681 68.5268 6.12988 68.6414 6.12988C68.7585 6.12988 68.8627 6.14681 68.9539 6.18066C69.0476 6.21191 69.127 6.25488 69.1921 6.30957C69.2572 6.36426 69.3067 6.42936 69.3406 6.50488C69.377 6.5778 69.3953 6.65723 69.3953 6.74316C69.3953 6.8265 69.377 6.90592 69.3406 6.98145C69.3067 7.05436 69.2572 7.11947 69.1921 7.17676C69.127 7.23145 69.0476 7.27572 68.9539 7.30957C68.8627 7.34082 68.7585 7.35645 68.6414 7.35645ZM68.0632 7.98535H69.2195V12.5947H68.0632V7.98535Z" fill="#EB001A"/>
<path d="M64.7351 8.85254H63.6218V7.98535H64.7351V6.55176H65.8914V7.98535H67.0046V8.85254H65.8914V12.5947H64.7351V8.85254Z" fill="#EB001A"/>
<path d="M58.4773 14.4775H57.321V7.98535H58.4773V8.41895C58.5789 8.34863 58.6986 8.28223 58.8367 8.21973C58.9747 8.15723 59.1231 8.10254 59.282 8.05566C59.4408 8.00879 59.6049 7.97233 59.7742 7.94629C59.9434 7.91764 60.1127 7.90332 60.282 7.90332C60.6726 7.90332 61.0307 7.96061 61.3562 8.0752C61.6843 8.18978 61.9656 8.35124 62.2 8.55957C62.4343 8.7679 62.6166 9.0179 62.7468 9.30957C62.8796 9.59863 62.946 9.91895 62.946 10.2705C62.946 10.6377 62.877 10.9697 62.739 11.2666C62.601 11.5609 62.4096 11.8135 62.1648 12.0244C61.9226 12.2327 61.6335 12.3942 61.2976 12.5088C60.9643 12.6208 60.6023 12.6768 60.2117 12.6768C60.045 12.6768 59.8796 12.6663 59.7156 12.6455C59.5541 12.6247 59.3979 12.596 59.2468 12.5596C59.0984 12.5231 58.9578 12.4801 58.825 12.4307C58.6947 12.3786 58.5789 12.3226 58.4773 12.2627V14.4775ZM58.4773 11.1455C58.5945 11.2393 58.7182 11.3187 58.8484 11.3838C58.9786 11.4489 59.1114 11.5023 59.2468 11.5439C59.3822 11.5856 59.519 11.6169 59.657 11.6377C59.795 11.6559 59.9291 11.665 60.0593 11.665C60.325 11.665 60.5606 11.6299 60.7664 11.5596C60.9747 11.4867 61.1492 11.3877 61.2898 11.2627C61.433 11.1377 61.5424 10.9906 61.6179 10.8213C61.6934 10.652 61.7312 10.4684 61.7312 10.2705C61.7312 10.0856 61.6934 9.91113 61.6179 9.74707C61.545 9.58301 61.4382 9.43978 61.2976 9.31738C61.1596 9.19238 60.9916 9.09473 60.7937 9.02441C60.5984 8.9515 60.3783 8.91504 60.1335 8.91504C59.9773 8.91504 59.821 8.93066 59.6648 8.96191C59.5085 8.99056 59.3575 9.03223 59.2117 9.08691C59.0684 9.1416 58.933 9.20801 58.8054 9.28613C58.6804 9.36426 58.571 9.4515 58.4773 9.54785V11.1455Z" fill="#EB001A"/>
<path d="M49.1375 9.52441C49.1375 9.06348 49.2221 8.6416 49.3914 8.25879C49.5606 7.87598 49.7976 7.54785 50.1023 7.27441C50.4096 6.99837 50.7768 6.78483 51.2039 6.63379C51.6335 6.48275 52.1088 6.40723 52.6296 6.40723C53.1479 6.40723 53.6218 6.48275 54.0515 6.63379C54.4812 6.78483 54.8484 6.99837 55.1531 7.27441C55.4604 7.54785 55.6986 7.87598 55.8679 8.25879C56.0372 8.6416 56.1218 9.06348 56.1218 9.52441C56.1218 9.98796 56.0372 10.4137 55.8679 10.8018C55.6986 11.1872 55.4604 11.5192 55.1531 11.7979C54.8484 12.0765 54.4812 12.2939 54.0515 12.4502C53.6218 12.6038 53.1479 12.6807 52.6296 12.6807C52.1088 12.6807 51.6335 12.6038 51.2039 12.4502C50.7768 12.2939 50.4096 12.0765 50.1023 11.7979C49.7976 11.5192 49.5606 11.1872 49.3914 10.8018C49.2221 10.4137 49.1375 9.98796 49.1375 9.52441ZM50.3757 9.52441C50.3757 9.83952 50.4317 10.1234 50.5437 10.376C50.6583 10.6286 50.8158 10.8447 51.0164 11.0244C51.2195 11.2015 51.4578 11.3382 51.7312 11.4346C52.0072 11.5309 52.3067 11.5791 52.6296 11.5791C52.9526 11.5791 53.2507 11.5309 53.5242 11.4346C53.8002 11.3382 54.0385 11.2015 54.239 11.0244C54.4395 10.8447 54.5971 10.6286 54.7117 10.376C54.8263 10.1234 54.8835 9.83952 54.8835 9.52441C54.8835 9.20931 54.8263 8.92676 54.7117 8.67676C54.5971 8.42676 54.4395 8.21582 54.239 8.04395C54.0385 7.86947 53.8002 7.73665 53.5242 7.64551C53.2507 7.55436 52.9526 7.50879 52.6296 7.50879C52.3067 7.50879 52.0072 7.55436 51.7312 7.64551C51.4578 7.73665 51.2195 7.86947 51.0164 8.04395C50.8158 8.21582 50.6583 8.42676 50.5437 8.67676C50.4317 8.92676 50.3757 9.20931 50.3757 9.52441Z" fill="#EB001A"/>
<path d="M98.1218 16.5889H105.921V18.2178H99.9792V20.0459H105.241V21.5752H99.9792V24.124H106.044V25.7471H98.1218V16.5889Z" fill="black"/>
<path d="M85.4949 21.083C85.4949 20.4385 85.616 19.8369 85.8582 19.2783C86.1003 18.7158 86.4539 18.2275 86.9187 17.8135C87.3835 17.3994 87.9539 17.0732 88.6296 16.835C89.3093 16.5967 90.0867 16.4775 90.9617 16.4775C91.2781 16.4775 91.5945 16.4951 91.9109 16.5303C92.2312 16.5615 92.5457 16.6123 92.8542 16.6826C93.1667 16.7529 93.4695 16.8428 93.7625 16.9521C94.0593 17.0576 94.3406 17.1846 94.6062 17.333L93.7507 18.7393C93.5906 18.6455 93.4089 18.5615 93.2058 18.4873C93.0027 18.4092 92.7839 18.3447 92.5496 18.2939C92.3191 18.2393 92.0789 18.1982 91.8289 18.1709C91.5828 18.1436 91.3347 18.1299 91.0847 18.1299C90.5066 18.1299 89.991 18.2041 89.5378 18.3525C89.0847 18.4971 88.7019 18.7021 88.3894 18.9678C88.0769 19.2295 87.8386 19.5439 87.6746 19.9111C87.5105 20.2783 87.4285 20.6807 87.4285 21.1182C87.4285 21.5713 87.5144 21.9873 87.6863 22.3662C87.8582 22.7451 88.1023 23.0713 88.4187 23.3447C88.7351 23.6182 89.1179 23.833 89.5671 23.9893C90.0164 24.1416 90.5183 24.2178 91.073 24.2178C91.5144 24.2178 91.9187 24.1689 92.2859 24.0713C92.6531 23.9697 92.9734 23.8271 93.2468 23.6436C93.5203 23.46 93.7429 23.2393 93.9148 22.9814C94.0867 22.7197 94.2 22.4268 94.2546 22.1025H91.0554V20.5732H95.9246V20.5791L95.9304 20.5732C96.0281 21.042 96.0574 21.499 96.0183 21.9443C95.9832 22.3857 95.8816 22.8037 95.7136 23.1982C95.5496 23.5889 95.323 23.9482 95.0339 24.2764C94.7449 24.6045 94.3992 24.8877 93.9968 25.126C93.5945 25.3604 93.1375 25.5439 92.6257 25.6768C92.114 25.8057 91.5535 25.8701 90.9441 25.8701C90.0925 25.8701 89.3289 25.7451 88.6531 25.4951C87.9812 25.2451 87.4109 24.9033 86.9421 24.4697C86.4734 24.0361 86.114 23.5283 85.864 22.9463C85.6179 22.3643 85.4949 21.7432 85.4949 21.083Z" fill="black"/>
<path d="M75.1414 16.5889H78.4988C79.4792 16.5889 80.3308 16.6943 81.0535 16.9053C81.7761 17.1162 82.3738 17.4189 82.8464 17.8135C83.323 18.2041 83.6765 18.6807 83.907 19.2432C84.1414 19.8018 84.2585 20.4307 84.2585 21.1299C84.2585 21.7939 84.1433 22.4092 83.9128 22.9756C83.6824 23.5381 83.3308 24.0264 82.8582 24.4404C82.3855 24.8506 81.7878 25.1729 81.0652 25.4072C80.3425 25.6377 79.491 25.7529 78.5105 25.7529L75.1414 25.7471V16.5889ZM78.9558 24.1416C79.5105 24.1416 79.9968 24.0713 80.4148 23.9307C80.8328 23.7861 81.1804 23.583 81.4578 23.3213C81.739 23.0596 81.95 22.7432 82.0906 22.3721C82.2312 22.001 82.3015 21.5869 82.3015 21.1299C82.3015 20.6807 82.2312 20.2764 82.0906 19.917C81.95 19.5537 81.739 19.2471 81.4578 18.9971C81.1804 18.7432 80.8328 18.5479 80.4148 18.4111C79.9968 18.2744 79.5105 18.2061 78.9558 18.2061H76.9988V24.1416H78.9558Z" fill="black"/>
<path d="M70.8992 16.5889H72.7683V25.7471H70.8992V16.5889Z" fill="black"/>
<path d="M60.1531 16.5889H64.8113C65.5144 16.5889 66.1238 16.6631 66.6394 16.8115C67.155 16.9561 67.5828 17.167 67.9226 17.4443C68.2625 17.7217 68.5144 18.0596 68.6785 18.458C68.8464 18.8564 68.9304 19.3076 68.9304 19.8115C68.9304 20.1514 68.8894 20.4756 68.8074 20.7842C68.7253 21.0889 68.5984 21.3701 68.4265 21.6279C68.2585 21.8857 68.0457 22.1162 67.7878 22.3193C67.53 22.5186 67.2273 22.6846 66.8796 22.8174L68.8718 25.7471H66.5984L64.8757 23.1455H64.823L62.0105 23.1396V25.7471H60.1531V16.5889ZM64.8582 21.5342C65.2097 21.5342 65.5164 21.4932 65.7781 21.4111C66.0437 21.3291 66.2644 21.2139 66.4402 21.0654C66.6199 20.917 66.7527 20.7373 66.8386 20.5264C66.9285 20.3115 66.9734 20.0732 66.9734 19.8115C66.9734 19.2998 66.7976 18.9053 66.446 18.6279C66.0945 18.3467 65.5652 18.2061 64.8582 18.2061H62.0105V21.5342H64.8582Z" fill="black"/>
<path d="M49.1375 16.5889H54.03C54.6277 16.5889 55.1472 16.6533 55.5886 16.7822C56.0339 16.9072 56.4031 17.0811 56.696 17.3037C56.989 17.5264 57.2058 17.792 57.3464 18.1006C57.491 18.4053 57.5632 18.7354 57.5632 19.0908C57.5632 19.6729 57.3796 20.1826 57.0125 20.6201C57.4343 20.8701 57.7488 21.1943 57.9558 21.5928C58.1628 21.9912 58.2664 22.4443 58.2664 22.9521C58.2664 23.3779 58.1941 23.7627 58.0496 24.1064C57.9089 24.4502 57.6921 24.7451 57.3992 24.9912C57.1101 25.2334 56.7429 25.4209 56.2976 25.5537C55.8562 25.6826 55.3347 25.7471 54.7332 25.7471H49.1375V16.5889ZM54.7449 20.1045C54.905 20.1045 55.0613 20.1104 55.2136 20.1221C55.4753 19.8721 55.6062 19.5869 55.6062 19.2666C55.6062 18.9346 55.4753 18.6787 55.2136 18.499C54.9558 18.3154 54.5769 18.2236 54.0769 18.2236H50.9949V20.1045H54.7449ZM54.78 24.1299C55.28 24.1299 55.6589 24.0225 55.9167 23.8076C56.1785 23.5928 56.3093 23.29 56.3093 22.8994C56.3093 22.5088 56.1785 22.2041 55.9167 21.9854C55.6589 21.7666 55.28 21.6572 54.78 21.6572H50.9949V24.1299H54.78Z" fill="black"/>
</svg>
