<svg xmlns="http://www.w3.org/2000/svg" width="20" height="20" viewBox="0 0 20 20" fill="none">
    <g clip-path="url(#clip0_9110_814)">
        <path
            d="M7.50033 3.33329V1.66663M12.5003 16.6666V18.3333M3.33366 7.49996H1.66699M16.667 12.5H18.3337M4.0955 4.09514L2.91699 2.91663M15.9051 15.9048L17.0837 17.0833M10.0003 14.714L8.23256 16.4818C6.93081 17.7835 4.82026 17.7835 3.51851 16.4818C2.21677 15.18 2.21677 13.0695 3.51851 11.7677L5.28628 9.99996M14.7144 9.99996L16.4821 8.23219C17.7839 6.93044 17.7839 4.81989 16.4821 3.51815C15.1804 2.2164 13.0698 2.2164 11.7681 3.51815L10.0003 5.28591"
            stroke="#232B5C" stroke-width="1.66667" stroke-linecap="round" stroke-linejoin="round" />
    </g>
    <defs>
        <clipPath id="clip0_9110_814">
            <rect width="20" height="20" fill="white" />
        </clipPath>
    </defs>
</svg>