<svg width="20" height="20" viewBox="0 0 20 20" fill="none" xmlns="http://www.w3.org/2000/svg">
<path d="M8.33338 10.8335C8.69125 11.3119 9.14784 11.7078 9.67217 11.9942C10.1965 12.2807 10.7763 12.4511 11.3723 12.4937C11.9682 12.5364 12.5664 12.4504 13.1262 12.2416C13.686 12.0328 14.1943 11.706 14.6167 11.2835L17.1167 8.78347C17.8757 7.99762 18.2957 6.94511 18.2862 5.85263C18.2767 4.76014 17.8385 3.71509 17.066 2.94256C16.2934 2.17002 15.2484 1.73182 14.1559 1.72233C13.0634 1.71283 12.0109 2.13281 11.225 2.8918L9.79171 4.3168M11.6667 9.1668C11.3088 8.68836 10.8522 8.29248 10.3279 8.00602C9.80359 7.71955 9.22379 7.5492 8.62784 7.50652C8.03188 7.46384 7.43372 7.54983 6.87392 7.75865C6.31412 7.96747 5.80578 8.29424 5.38338 8.7168L2.88338 11.2168C2.12439 12.0026 1.70441 13.0552 1.7139 14.1476C1.7234 15.2401 2.1616 16.2852 2.93413 17.0577C3.70667 17.8302 4.75172 18.2684 5.84421 18.2779C6.93669 18.2874 7.9892 17.8675 8.77504 17.1085L10.2 15.6835" stroke="#232B5C" stroke-width="1.66667" stroke-linecap="round" stroke-linejoin="round"/>
</svg>
