<svg width="32" height="32" viewBox="0 0 32 32" fill="none" xmlns="http://www.w3.org/2000/svg">
<path d="M0 16C0 7.16344 7.16344 0 16 0C24.8366 0 32 7.16344 32 16C32 24.8366 24.8366 32 16 32C7.16344 32 0 24.8366 0 16Z" fill="#BCC0D2"/>
<path d="M17.4997 9.3335H13.6626C13.543 9.3335 13.4832 9.3335 13.4303 9.35171C13.3836 9.36783 13.3411 9.39412 13.3058 9.42869C13.2659 9.46778 13.2391 9.5213 13.1856 9.62832L10.3856 15.2283C10.2578 15.4839 10.1939 15.6117 10.2093 15.7155C10.2227 15.8063 10.2728 15.8874 10.348 15.94C10.434 16.0002 10.5769 16.0002 10.8626 16.0002H14.9997L12.9997 22.6668L21.1284 14.237C21.4027 13.9526 21.5398 13.8104 21.5478 13.6888C21.5548 13.5831 21.5112 13.4805 21.4303 13.4122C21.3371 13.3335 21.1396 13.3335 20.7445 13.3335H15.9997L17.4997 9.3335Z" stroke="#2B3366" stroke-width="1.33333" stroke-linecap="round" stroke-linejoin="round"/>
</svg>
