<?xml version="1.0" encoding="utf-8"?>
<svg viewBox="49.528 23.128 425.52 425.52" xmlns="http://www.w3.org/2000/svg">
  <ellipse style="fill: rgb(235, 0, 26); paint-order: fill;" cx="262.288" cy="235.888" rx="212.76" ry="212.76"/>
  <g transform="matrix(0.629322, 0, 0, -0.629322, 97.324016, 379.249828)" style="">
    <g>
      <path d="M 373.333 117.333 c -76.578 0 -138.667 62.081 -138.667 138.667 c 0 53.015 -42.979 96 -96 96 c -53.007 0 -96 -42.993 -96 -96 c 0 -53.021 42.985 -96 96 -96 c 13.445 0 26.452 2.74 38.454 7.985 c 10.796 4.718 23.373 -0.209 28.091 -11.005 c 4.718 -10.796 -0.209 -23.373 -11.005 -28.091 c -17.369 -7.591 -36.192 -11.556 -55.541 -11.556 C 62.088 117.333 0 179.414 0 256 c 0 76.571 62.095 138.667 138.667 138.667 c 76.586 0 138.667 -62.089 138.667 -138.667 c 0 -53.021 42.985 -96 96 -96 c 53.029 0 96 42.971 96 96 c 0 53.015 -45.334 96 -67.334 96 c -15 2 -46 4 -58 -34 C 330 268 336 248 334 228 C 339 102 335 105 337 59 C 337 50 340 39 316 38 c -21 0 -19 13 -19 17 c -1 17 0 146 -1 176 c 0 16 -3 36 3 70 C 309 352 324 381 366 392 C 461 409 508 332 510 254 C 512 179.407 449.926 117.333 373.333 117.333 z" style="fill: rgb(255, 255, 255);"/>
    </g>
  </g>
</svg>