<svg width="40" height="40" viewBox="0 0 40 40" fill="none" xmlns="http://www.w3.org/2000/svg">
<g clip-path="url(#clip0_9435_5613)">
<path d="M20 40C31.0457 40 40 31.0457 40 20C40 8.95431 31.0457 0 20 0C8.95431 0 0 8.95431 0 20C0 31.0457 8.95431 40 20 40Z" fill="#FF0420"/>
<path d="M14.5057 25.6001C13.2993 25.6001 12.311 25.3097 11.5405 24.729C10.7803 24.1379 10.4001 23.2979 10.4001 22.209C10.4001 21.9809 10.4255 21.7009 10.4761 21.369C10.608 20.6224 10.7955 19.7253 11.0388 18.6779C11.7281 15.8261 13.5072 14.4001 16.376 14.4001C17.1565 14.4001 17.856 14.5349 18.4743 14.8046C19.0927 15.0638 19.5793 15.4579 19.9341 15.9868C20.2889 16.5053 20.4663 17.1276 20.4663 17.8535C20.4663 18.0713 20.4409 18.3461 20.3902 18.6779C20.2382 19.6009 20.0557 20.4979 19.8429 21.369C19.4881 22.7897 18.8748 23.8527 18.0029 24.5579C17.1312 25.2527 15.9654 25.6001 14.5057 25.6001ZM14.7185 23.3601C15.2862 23.3601 15.7677 23.189 16.1631 22.8468C16.5685 22.5046 16.8575 21.9809 17.0298 21.2757C17.2629 20.3009 17.4404 19.4505 17.562 18.7246C17.6025 18.5068 17.6228 18.2838 17.6228 18.0557C17.6228 17.112 17.1413 16.6401 16.1783 16.6401C15.6106 16.6401 15.1241 16.8113 14.7185 17.1535C14.3232 17.4957 14.0393 18.0194 13.867 18.7246C13.6845 19.4194 13.5021 20.2697 13.3197 21.2757C13.2791 21.4831 13.2588 21.7009 13.2588 21.929C13.2588 22.8831 13.7453 23.3601 14.7185 23.3601Z" fill="white"/>
<path d="M21.1644 25.4444C21.0529 25.4444 20.9667 25.4081 20.9058 25.3354C20.8552 25.2525 20.84 25.1592 20.8602 25.0554L22.9586 14.9444C22.9789 14.8303 23.0346 14.7369 23.1259 14.6644C23.2171 14.5917 23.3134 14.5554 23.4148 14.5554H27.4595C28.5847 14.5554 29.4869 14.794 30.1661 15.271C30.8554 15.7481 31.2001 16.4377 31.2001 17.3399C31.2001 17.5992 31.1697 17.8688 31.1089 18.1488C30.8554 19.3414 30.3435 20.2229 29.573 20.7933C28.8128 21.3636 27.7686 21.6488 26.4407 21.6488H24.3879L23.6885 25.0554C23.6682 25.1695 23.6125 25.2629 23.5212 25.3354C23.43 25.4081 23.3337 25.4444 23.2323 25.4444H21.1644ZM26.5471 19.5021C26.9729 19.5021 27.3429 19.3829 27.6572 19.1444C27.9815 18.9058 28.1944 18.5636 28.2958 18.1177C28.3262 17.9414 28.3414 17.7858 28.3414 17.651C28.3414 17.3503 28.2553 17.1221 28.083 16.9665C27.9106 16.8006 27.6166 16.7177 27.201 16.7177H25.3763L24.7985 19.5021H26.5471Z" fill="white"/>
</g>
<defs>
<clipPath id="clip0_9435_5613">
<rect width="40" height="40" fill="white"/>
</clipPath>
</defs>
</svg>
