<svg width="336" height="208" viewBox="0 0 336 208" fill="none" xmlns="http://www.w3.org/2000/svg">
    <mask id="mask0_9308_5988" style="mask-type:alpha" maskUnits="userSpaceOnUse" x="0" y="-128"
        width="336" height="336">
        <rect width="336" height="336" transform="translate(0 -128)"
            fill="url(#paint0_radial_9308_5988)" />
    </mask>
    <g mask="url(#mask0_9308_5988)">
        <path
            d="M8 -121.5C8 -120.672 7.32843 -120 6.5 -120C5.67157 -120 5 -120.672 5 -121.5C5 -122.328 5.67157 -123 6.5 -123C7.32843 -123 8 -122.328 8 -121.5Z"
            fill="#D0D5DD" />
        <path
            d="M27 -121.5C27 -120.672 26.3284 -120 25.5 -120C24.6716 -120 24 -120.672 24 -121.5C24 -122.328 24.6716 -123 25.5 -123C26.3284 -123 27 -122.328 27 -121.5Z"
            fill="#D0D5DD" />
        <path
            d="M46 -121.5C46 -120.672 45.3284 -120 44.5 -120C43.6716 -120 43 -120.672 43 -121.5C43 -122.328 43.6716 -123 44.5 -123C45.3284 -123 46 -122.328 46 -121.5Z"
            fill="#D0D5DD" />
        <path
            d="M65 -121.5C65 -120.672 64.3284 -120 63.5 -120C62.6716 -120 62 -120.672 62 -121.5C62 -122.328 62.6716 -123 63.5 -123C64.3284 -123 65 -122.328 65 -121.5Z"
            fill="#D0D5DD" />
        <path
            d="M84 -121.5C84 -120.672 83.3284 -120 82.5 -120C81.6716 -120 81 -120.672 81 -121.5C81 -122.328 81.6716 -123 82.5 -123C83.3284 -123 84 -122.328 84 -121.5Z"
            fill="#D0D5DD" />
        <path
            d="M103 -121.5C103 -120.672 102.328 -120 101.5 -120C100.672 -120 100 -120.672 100 -121.5C100 -122.328 100.672 -123 101.5 -123C102.328 -123 103 -122.328 103 -121.5Z"
            fill="#D0D5DD" />
        <path
            d="M122 -121.5C122 -120.672 121.328 -120 120.5 -120C119.672 -120 119 -120.672 119 -121.5C119 -122.328 119.672 -123 120.5 -123C121.328 -123 122 -122.328 122 -121.5Z"
            fill="#D0D5DD" />
        <path
            d="M141 -121.5C141 -120.672 140.328 -120 139.5 -120C138.672 -120 138 -120.672 138 -121.5C138 -122.328 138.672 -123 139.5 -123C140.328 -123 141 -122.328 141 -121.5Z"
            fill="#D0D5DD" />
        <path
            d="M160 -121.5C160 -120.672 159.328 -120 158.5 -120C157.672 -120 157 -120.672 157 -121.5C157 -122.328 157.672 -123 158.5 -123C159.328 -123 160 -122.328 160 -121.5Z"
            fill="#D0D5DD" />
        <path
            d="M179 -121.5C179 -120.672 178.328 -120 177.5 -120C176.672 -120 176 -120.672 176 -121.5C176 -122.328 176.672 -123 177.5 -123C178.328 -123 179 -122.328 179 -121.5Z"
            fill="#D0D5DD" />
        <path
            d="M198 -121.5C198 -120.672 197.328 -120 196.5 -120C195.672 -120 195 -120.672 195 -121.5C195 -122.328 195.672 -123 196.5 -123C197.328 -123 198 -122.328 198 -121.5Z"
            fill="#D0D5DD" />
        <path
            d="M217 -121.5C217 -120.672 216.328 -120 215.5 -120C214.672 -120 214 -120.672 214 -121.5C214 -122.328 214.672 -123 215.5 -123C216.328 -123 217 -122.328 217 -121.5Z"
            fill="#D0D5DD" />
        <path
            d="M236 -121.5C236 -120.672 235.328 -120 234.5 -120C233.672 -120 233 -120.672 233 -121.5C233 -122.328 233.672 -123 234.5 -123C235.328 -123 236 -122.328 236 -121.5Z"
            fill="#D0D5DD" />
        <path
            d="M255 -121.5C255 -120.672 254.328 -120 253.5 -120C252.672 -120 252 -120.672 252 -121.5C252 -122.328 252.672 -123 253.5 -123C254.328 -123 255 -122.328 255 -121.5Z"
            fill="#D0D5DD" />
        <path
            d="M274 -121.5C274 -120.672 273.328 -120 272.5 -120C271.672 -120 271 -120.672 271 -121.5C271 -122.328 271.672 -123 272.5 -123C273.328 -123 274 -122.328 274 -121.5Z"
            fill="#D0D5DD" />
        <path
            d="M293 -121.5C293 -120.672 292.328 -120 291.5 -120C290.672 -120 290 -120.672 290 -121.5C290 -122.328 290.672 -123 291.5 -123C292.328 -123 293 -122.328 293 -121.5Z"
            fill="#D0D5DD" />
        <path
            d="M312 -121.5C312 -120.672 311.328 -120 310.5 -120C309.672 -120 309 -120.672 309 -121.5C309 -122.328 309.672 -123 310.5 -123C311.328 -123 312 -122.328 312 -121.5Z"
            fill="#D0D5DD" />
        <path
            d="M331 -121.5C331 -120.672 330.328 -120 329.5 -120C328.672 -120 328 -120.672 328 -121.5C328 -122.328 328.672 -123 329.5 -123C330.328 -123 331 -122.328 331 -121.5Z"
            fill="#D0D5DD" />
        <path
            d="M8 -102.5C8 -101.672 7.32843 -101 6.5 -101C5.67157 -101 5 -101.672 5 -102.5C5 -103.328 5.67157 -104 6.5 -104C7.32843 -104 8 -103.328 8 -102.5Z"
            fill="#D0D5DD" />
        <path
            d="M27 -102.5C27 -101.672 26.3284 -101 25.5 -101C24.6716 -101 24 -101.672 24 -102.5C24 -103.328 24.6716 -104 25.5 -104C26.3284 -104 27 -103.328 27 -102.5Z"
            fill="#D0D5DD" />
        <path
            d="M46 -102.5C46 -101.672 45.3284 -101 44.5 -101C43.6716 -101 43 -101.672 43 -102.5C43 -103.328 43.6716 -104 44.5 -104C45.3284 -104 46 -103.328 46 -102.5Z"
            fill="#D0D5DD" />
        <path
            d="M65 -102.5C65 -101.672 64.3284 -101 63.5 -101C62.6716 -101 62 -101.672 62 -102.5C62 -103.328 62.6716 -104 63.5 -104C64.3284 -104 65 -103.328 65 -102.5Z"
            fill="#D0D5DD" />
        <path
            d="M84 -102.5C84 -101.672 83.3284 -101 82.5 -101C81.6716 -101 81 -101.672 81 -102.5C81 -103.328 81.6716 -104 82.5 -104C83.3284 -104 84 -103.328 84 -102.5Z"
            fill="#D0D5DD" />
        <path
            d="M103 -102.5C103 -101.672 102.328 -101 101.5 -101C100.672 -101 100 -101.672 100 -102.5C100 -103.328 100.672 -104 101.5 -104C102.328 -104 103 -103.328 103 -102.5Z"
            fill="#D0D5DD" />
        <path
            d="M122 -102.5C122 -101.672 121.328 -101 120.5 -101C119.672 -101 119 -101.672 119 -102.5C119 -103.328 119.672 -104 120.5 -104C121.328 -104 122 -103.328 122 -102.5Z"
            fill="#D0D5DD" />
        <path
            d="M141 -102.5C141 -101.672 140.328 -101 139.5 -101C138.672 -101 138 -101.672 138 -102.5C138 -103.328 138.672 -104 139.5 -104C140.328 -104 141 -103.328 141 -102.5Z"
            fill="#D0D5DD" />
        <path
            d="M160 -102.5C160 -101.672 159.328 -101 158.5 -101C157.672 -101 157 -101.672 157 -102.5C157 -103.328 157.672 -104 158.5 -104C159.328 -104 160 -103.328 160 -102.5Z"
            fill="#D0D5DD" />
        <path
            d="M179 -102.5C179 -101.672 178.328 -101 177.5 -101C176.672 -101 176 -101.672 176 -102.5C176 -103.328 176.672 -104 177.5 -104C178.328 -104 179 -103.328 179 -102.5Z"
            fill="#D0D5DD" />
        <path
            d="M198 -102.5C198 -101.672 197.328 -101 196.5 -101C195.672 -101 195 -101.672 195 -102.5C195 -103.328 195.672 -104 196.5 -104C197.328 -104 198 -103.328 198 -102.5Z"
            fill="#D0D5DD" />
        <path
            d="M217 -102.5C217 -101.672 216.328 -101 215.5 -101C214.672 -101 214 -101.672 214 -102.5C214 -103.328 214.672 -104 215.5 -104C216.328 -104 217 -103.328 217 -102.5Z"
            fill="#D0D5DD" />
        <path
            d="M236 -102.5C236 -101.672 235.328 -101 234.5 -101C233.672 -101 233 -101.672 233 -102.5C233 -103.328 233.672 -104 234.5 -104C235.328 -104 236 -103.328 236 -102.5Z"
            fill="#D0D5DD" />
        <path
            d="M255 -102.5C255 -101.672 254.328 -101 253.5 -101C252.672 -101 252 -101.672 252 -102.5C252 -103.328 252.672 -104 253.5 -104C254.328 -104 255 -103.328 255 -102.5Z"
            fill="#D0D5DD" />
        <path
            d="M274 -102.5C274 -101.672 273.328 -101 272.5 -101C271.672 -101 271 -101.672 271 -102.5C271 -103.328 271.672 -104 272.5 -104C273.328 -104 274 -103.328 274 -102.5Z"
            fill="#D0D5DD" />
        <path
            d="M293 -102.5C293 -101.672 292.328 -101 291.5 -101C290.672 -101 290 -101.672 290 -102.5C290 -103.328 290.672 -104 291.5 -104C292.328 -104 293 -103.328 293 -102.5Z"
            fill="#D0D5DD" />
        <path
            d="M312 -102.5C312 -101.672 311.328 -101 310.5 -101C309.672 -101 309 -101.672 309 -102.5C309 -103.328 309.672 -104 310.5 -104C311.328 -104 312 -103.328 312 -102.5Z"
            fill="#D0D5DD" />
        <path
            d="M331 -102.5C331 -101.672 330.328 -101 329.5 -101C328.672 -101 328 -101.672 328 -102.5C328 -103.328 328.672 -104 329.5 -104C330.328 -104 331 -103.328 331 -102.5Z"
            fill="#D0D5DD" />
        <path
            d="M8 -83.5C8 -82.6716 7.32843 -82 6.5 -82C5.67157 -82 5 -82.6716 5 -83.5C5 -84.3284 5.67157 -85 6.5 -85C7.32843 -85 8 -84.3284 8 -83.5Z"
            fill="#D0D5DD" />
        <path
            d="M27 -83.5C27 -82.6716 26.3284 -82 25.5 -82C24.6716 -82 24 -82.6716 24 -83.5C24 -84.3284 24.6716 -85 25.5 -85C26.3284 -85 27 -84.3284 27 -83.5Z"
            fill="#D0D5DD" />
        <path
            d="M46 -83.5C46 -82.6716 45.3284 -82 44.5 -82C43.6716 -82 43 -82.6716 43 -83.5C43 -84.3284 43.6716 -85 44.5 -85C45.3284 -85 46 -84.3284 46 -83.5Z"
            fill="#D0D5DD" />
        <path
            d="M65 -83.5C65 -82.6716 64.3284 -82 63.5 -82C62.6716 -82 62 -82.6716 62 -83.5C62 -84.3284 62.6716 -85 63.5 -85C64.3284 -85 65 -84.3284 65 -83.5Z"
            fill="#D0D5DD" />
        <path
            d="M84 -83.5C84 -82.6716 83.3284 -82 82.5 -82C81.6716 -82 81 -82.6716 81 -83.5C81 -84.3284 81.6716 -85 82.5 -85C83.3284 -85 84 -84.3284 84 -83.5Z"
            fill="#D0D5DD" />
        <path
            d="M103 -83.5C103 -82.6716 102.328 -82 101.5 -82C100.672 -82 100 -82.6716 100 -83.5C100 -84.3284 100.672 -85 101.5 -85C102.328 -85 103 -84.3284 103 -83.5Z"
            fill="#D0D5DD" />
        <path
            d="M122 -83.5C122 -82.6716 121.328 -82 120.5 -82C119.672 -82 119 -82.6716 119 -83.5C119 -84.3284 119.672 -85 120.5 -85C121.328 -85 122 -84.3284 122 -83.5Z"
            fill="#D0D5DD" />
        <path
            d="M141 -83.5C141 -82.6716 140.328 -82 139.5 -82C138.672 -82 138 -82.6716 138 -83.5C138 -84.3284 138.672 -85 139.5 -85C140.328 -85 141 -84.3284 141 -83.5Z"
            fill="#D0D5DD" />
        <path
            d="M160 -83.5C160 -82.6716 159.328 -82 158.5 -82C157.672 -82 157 -82.6716 157 -83.5C157 -84.3284 157.672 -85 158.5 -85C159.328 -85 160 -84.3284 160 -83.5Z"
            fill="#D0D5DD" />
        <path
            d="M179 -83.5C179 -82.6716 178.328 -82 177.5 -82C176.672 -82 176 -82.6716 176 -83.5C176 -84.3284 176.672 -85 177.5 -85C178.328 -85 179 -84.3284 179 -83.5Z"
            fill="#D0D5DD" />
        <path
            d="M198 -83.5C198 -82.6716 197.328 -82 196.5 -82C195.672 -82 195 -82.6716 195 -83.5C195 -84.3284 195.672 -85 196.5 -85C197.328 -85 198 -84.3284 198 -83.5Z"
            fill="#D0D5DD" />
        <path
            d="M217 -83.5C217 -82.6716 216.328 -82 215.5 -82C214.672 -82 214 -82.6716 214 -83.5C214 -84.3284 214.672 -85 215.5 -85C216.328 -85 217 -84.3284 217 -83.5Z"
            fill="#D0D5DD" />
        <path
            d="M236 -83.5C236 -82.6716 235.328 -82 234.5 -82C233.672 -82 233 -82.6716 233 -83.5C233 -84.3284 233.672 -85 234.5 -85C235.328 -85 236 -84.3284 236 -83.5Z"
            fill="#D0D5DD" />
        <path
            d="M255 -83.5C255 -82.6716 254.328 -82 253.5 -82C252.672 -82 252 -82.6716 252 -83.5C252 -84.3284 252.672 -85 253.5 -85C254.328 -85 255 -84.3284 255 -83.5Z"
            fill="#D0D5DD" />
        <path
            d="M274 -83.5C274 -82.6716 273.328 -82 272.5 -82C271.672 -82 271 -82.6716 271 -83.5C271 -84.3284 271.672 -85 272.5 -85C273.328 -85 274 -84.3284 274 -83.5Z"
            fill="#D0D5DD" />
        <path
            d="M293 -83.5C293 -82.6716 292.328 -82 291.5 -82C290.672 -82 290 -82.6716 290 -83.5C290 -84.3284 290.672 -85 291.5 -85C292.328 -85 293 -84.3284 293 -83.5Z"
            fill="#D0D5DD" />
        <path
            d="M312 -83.5C312 -82.6716 311.328 -82 310.5 -82C309.672 -82 309 -82.6716 309 -83.5C309 -84.3284 309.672 -85 310.5 -85C311.328 -85 312 -84.3284 312 -83.5Z"
            fill="#D0D5DD" />
        <path
            d="M331 -83.5C331 -82.6716 330.328 -82 329.5 -82C328.672 -82 328 -82.6716 328 -83.5C328 -84.3284 328.672 -85 329.5 -85C330.328 -85 331 -84.3284 331 -83.5Z"
            fill="#D0D5DD" />
        <path
            d="M8 -64.5C8 -63.6716 7.32843 -63 6.5 -63C5.67157 -63 5 -63.6716 5 -64.5C5 -65.3284 5.67157 -66 6.5 -66C7.32843 -66 8 -65.3284 8 -64.5Z"
            fill="#D0D5DD" />
        <path
            d="M27 -64.5C27 -63.6716 26.3284 -63 25.5 -63C24.6716 -63 24 -63.6716 24 -64.5C24 -65.3284 24.6716 -66 25.5 -66C26.3284 -66 27 -65.3284 27 -64.5Z"
            fill="#D0D5DD" />
        <path
            d="M46 -64.5C46 -63.6716 45.3284 -63 44.5 -63C43.6716 -63 43 -63.6716 43 -64.5C43 -65.3284 43.6716 -66 44.5 -66C45.3284 -66 46 -65.3284 46 -64.5Z"
            fill="#D0D5DD" />
        <path
            d="M65 -64.5C65 -63.6716 64.3284 -63 63.5 -63C62.6716 -63 62 -63.6716 62 -64.5C62 -65.3284 62.6716 -66 63.5 -66C64.3284 -66 65 -65.3284 65 -64.5Z"
            fill="#D0D5DD" />
        <path
            d="M84 -64.5C84 -63.6716 83.3284 -63 82.5 -63C81.6716 -63 81 -63.6716 81 -64.5C81 -65.3284 81.6716 -66 82.5 -66C83.3284 -66 84 -65.3284 84 -64.5Z"
            fill="#D0D5DD" />
        <path
            d="M103 -64.5C103 -63.6716 102.328 -63 101.5 -63C100.672 -63 100 -63.6716 100 -64.5C100 -65.3284 100.672 -66 101.5 -66C102.328 -66 103 -65.3284 103 -64.5Z"
            fill="#D0D5DD" />
        <path
            d="M122 -64.5C122 -63.6716 121.328 -63 120.5 -63C119.672 -63 119 -63.6716 119 -64.5C119 -65.3284 119.672 -66 120.5 -66C121.328 -66 122 -65.3284 122 -64.5Z"
            fill="#D0D5DD" />
        <path
            d="M141 -64.5C141 -63.6716 140.328 -63 139.5 -63C138.672 -63 138 -63.6716 138 -64.5C138 -65.3284 138.672 -66 139.5 -66C140.328 -66 141 -65.3284 141 -64.5Z"
            fill="#D0D5DD" />
        <path
            d="M160 -64.5C160 -63.6716 159.328 -63 158.5 -63C157.672 -63 157 -63.6716 157 -64.5C157 -65.3284 157.672 -66 158.5 -66C159.328 -66 160 -65.3284 160 -64.5Z"
            fill="#D0D5DD" />
        <path
            d="M179 -64.5C179 -63.6716 178.328 -63 177.5 -63C176.672 -63 176 -63.6716 176 -64.5C176 -65.3284 176.672 -66 177.5 -66C178.328 -66 179 -65.3284 179 -64.5Z"
            fill="#D0D5DD" />
        <path
            d="M198 -64.5C198 -63.6716 197.328 -63 196.5 -63C195.672 -63 195 -63.6716 195 -64.5C195 -65.3284 195.672 -66 196.5 -66C197.328 -66 198 -65.3284 198 -64.5Z"
            fill="#D0D5DD" />
        <path
            d="M217 -64.5C217 -63.6716 216.328 -63 215.5 -63C214.672 -63 214 -63.6716 214 -64.5C214 -65.3284 214.672 -66 215.5 -66C216.328 -66 217 -65.3284 217 -64.5Z"
            fill="#D0D5DD" />
        <path
            d="M236 -64.5C236 -63.6716 235.328 -63 234.5 -63C233.672 -63 233 -63.6716 233 -64.5C233 -65.3284 233.672 -66 234.5 -66C235.328 -66 236 -65.3284 236 -64.5Z"
            fill="#D0D5DD" />
        <path
            d="M255 -64.5C255 -63.6716 254.328 -63 253.5 -63C252.672 -63 252 -63.6716 252 -64.5C252 -65.3284 252.672 -66 253.5 -66C254.328 -66 255 -65.3284 255 -64.5Z"
            fill="#D0D5DD" />
        <path
            d="M274 -64.5C274 -63.6716 273.328 -63 272.5 -63C271.672 -63 271 -63.6716 271 -64.5C271 -65.3284 271.672 -66 272.5 -66C273.328 -66 274 -65.3284 274 -64.5Z"
            fill="#D0D5DD" />
        <path
            d="M293 -64.5C293 -63.6716 292.328 -63 291.5 -63C290.672 -63 290 -63.6716 290 -64.5C290 -65.3284 290.672 -66 291.5 -66C292.328 -66 293 -65.3284 293 -64.5Z"
            fill="#D0D5DD" />
        <path
            d="M312 -64.5C312 -63.6716 311.328 -63 310.5 -63C309.672 -63 309 -63.6716 309 -64.5C309 -65.3284 309.672 -66 310.5 -66C311.328 -66 312 -65.3284 312 -64.5Z"
            fill="#D0D5DD" />
        <path
            d="M331 -64.5C331 -63.6716 330.328 -63 329.5 -63C328.672 -63 328 -63.6716 328 -64.5C328 -65.3284 328.672 -66 329.5 -66C330.328 -66 331 -65.3284 331 -64.5Z"
            fill="#D0D5DD" />
        <path
            d="M8 -45.5C8 -44.6716 7.32843 -44 6.5 -44C5.67157 -44 5 -44.6716 5 -45.5C5 -46.3284 5.67157 -47 6.5 -47C7.32843 -47 8 -46.3284 8 -45.5Z"
            fill="#D0D5DD" />
        <path
            d="M27 -45.5C27 -44.6716 26.3284 -44 25.5 -44C24.6716 -44 24 -44.6716 24 -45.5C24 -46.3284 24.6716 -47 25.5 -47C26.3284 -47 27 -46.3284 27 -45.5Z"
            fill="#D0D5DD" />
        <path
            d="M46 -45.5C46 -44.6716 45.3284 -44 44.5 -44C43.6716 -44 43 -44.6716 43 -45.5C43 -46.3284 43.6716 -47 44.5 -47C45.3284 -47 46 -46.3284 46 -45.5Z"
            fill="#D0D5DD" />
        <path
            d="M65 -45.5C65 -44.6716 64.3284 -44 63.5 -44C62.6716 -44 62 -44.6716 62 -45.5C62 -46.3284 62.6716 -47 63.5 -47C64.3284 -47 65 -46.3284 65 -45.5Z"
            fill="#D0D5DD" />
        <path
            d="M84 -45.5C84 -44.6716 83.3284 -44 82.5 -44C81.6716 -44 81 -44.6716 81 -45.5C81 -46.3284 81.6716 -47 82.5 -47C83.3284 -47 84 -46.3284 84 -45.5Z"
            fill="#D0D5DD" />
        <path
            d="M103 -45.5C103 -44.6716 102.328 -44 101.5 -44C100.672 -44 100 -44.6716 100 -45.5C100 -46.3284 100.672 -47 101.5 -47C102.328 -47 103 -46.3284 103 -45.5Z"
            fill="#D0D5DD" />
        <path
            d="M122 -45.5C122 -44.6716 121.328 -44 120.5 -44C119.672 -44 119 -44.6716 119 -45.5C119 -46.3284 119.672 -47 120.5 -47C121.328 -47 122 -46.3284 122 -45.5Z"
            fill="#D0D5DD" />
        <path
            d="M141 -45.5C141 -44.6716 140.328 -44 139.5 -44C138.672 -44 138 -44.6716 138 -45.5C138 -46.3284 138.672 -47 139.5 -47C140.328 -47 141 -46.3284 141 -45.5Z"
            fill="#D0D5DD" />
        <path
            d="M160 -45.5C160 -44.6716 159.328 -44 158.5 -44C157.672 -44 157 -44.6716 157 -45.5C157 -46.3284 157.672 -47 158.5 -47C159.328 -47 160 -46.3284 160 -45.5Z"
            fill="#D0D5DD" />
        <path
            d="M179 -45.5C179 -44.6716 178.328 -44 177.5 -44C176.672 -44 176 -44.6716 176 -45.5C176 -46.3284 176.672 -47 177.5 -47C178.328 -47 179 -46.3284 179 -45.5Z"
            fill="#D0D5DD" />
        <path
            d="M198 -45.5C198 -44.6716 197.328 -44 196.5 -44C195.672 -44 195 -44.6716 195 -45.5C195 -46.3284 195.672 -47 196.5 -47C197.328 -47 198 -46.3284 198 -45.5Z"
            fill="#D0D5DD" />
        <path
            d="M217 -45.5C217 -44.6716 216.328 -44 215.5 -44C214.672 -44 214 -44.6716 214 -45.5C214 -46.3284 214.672 -47 215.5 -47C216.328 -47 217 -46.3284 217 -45.5Z"
            fill="#D0D5DD" />
        <path
            d="M236 -45.5C236 -44.6716 235.328 -44 234.5 -44C233.672 -44 233 -44.6716 233 -45.5C233 -46.3284 233.672 -47 234.5 -47C235.328 -47 236 -46.3284 236 -45.5Z"
            fill="#D0D5DD" />
        <path
            d="M255 -45.5C255 -44.6716 254.328 -44 253.5 -44C252.672 -44 252 -44.6716 252 -45.5C252 -46.3284 252.672 -47 253.5 -47C254.328 -47 255 -46.3284 255 -45.5Z"
            fill="#D0D5DD" />
        <path
            d="M274 -45.5C274 -44.6716 273.328 -44 272.5 -44C271.672 -44 271 -44.6716 271 -45.5C271 -46.3284 271.672 -47 272.5 -47C273.328 -47 274 -46.3284 274 -45.5Z"
            fill="#D0D5DD" />
        <path
            d="M293 -45.5C293 -44.6716 292.328 -44 291.5 -44C290.672 -44 290 -44.6716 290 -45.5C290 -46.3284 290.672 -47 291.5 -47C292.328 -47 293 -46.3284 293 -45.5Z"
            fill="#D0D5DD" />
        <path
            d="M312 -45.5C312 -44.6716 311.328 -44 310.5 -44C309.672 -44 309 -44.6716 309 -45.5C309 -46.3284 309.672 -47 310.5 -47C311.328 -47 312 -46.3284 312 -45.5Z"
            fill="#D0D5DD" />
        <path
            d="M331 -45.5C331 -44.6716 330.328 -44 329.5 -44C328.672 -44 328 -44.6716 328 -45.5C328 -46.3284 328.672 -47 329.5 -47C330.328 -47 331 -46.3284 331 -45.5Z"
            fill="#D0D5DD" />
        <path
            d="M8 -26.5C8 -25.6716 7.32843 -25 6.5 -25C5.67157 -25 5 -25.6716 5 -26.5C5 -27.3284 5.67157 -28 6.5 -28C7.32843 -28 8 -27.3284 8 -26.5Z"
            fill="#D0D5DD" />
        <path
            d="M27 -26.5C27 -25.6716 26.3284 -25 25.5 -25C24.6716 -25 24 -25.6716 24 -26.5C24 -27.3284 24.6716 -28 25.5 -28C26.3284 -28 27 -27.3284 27 -26.5Z"
            fill="#D0D5DD" />
        <path
            d="M46 -26.5C46 -25.6716 45.3284 -25 44.5 -25C43.6716 -25 43 -25.6716 43 -26.5C43 -27.3284 43.6716 -28 44.5 -28C45.3284 -28 46 -27.3284 46 -26.5Z"
            fill="#D0D5DD" />
        <path
            d="M65 -26.5C65 -25.6716 64.3284 -25 63.5 -25C62.6716 -25 62 -25.6716 62 -26.5C62 -27.3284 62.6716 -28 63.5 -28C64.3284 -28 65 -27.3284 65 -26.5Z"
            fill="#D0D5DD" />
        <path
            d="M84 -26.5C84 -25.6716 83.3284 -25 82.5 -25C81.6716 -25 81 -25.6716 81 -26.5C81 -27.3284 81.6716 -28 82.5 -28C83.3284 -28 84 -27.3284 84 -26.5Z"
            fill="#D0D5DD" />
        <path
            d="M103 -26.5C103 -25.6716 102.328 -25 101.5 -25C100.672 -25 100 -25.6716 100 -26.5C100 -27.3284 100.672 -28 101.5 -28C102.328 -28 103 -27.3284 103 -26.5Z"
            fill="#D0D5DD" />
        <path
            d="M122 -26.5C122 -25.6716 121.328 -25 120.5 -25C119.672 -25 119 -25.6716 119 -26.5C119 -27.3284 119.672 -28 120.5 -28C121.328 -28 122 -27.3284 122 -26.5Z"
            fill="#D0D5DD" />
        <path
            d="M141 -26.5C141 -25.6716 140.328 -25 139.5 -25C138.672 -25 138 -25.6716 138 -26.5C138 -27.3284 138.672 -28 139.5 -28C140.328 -28 141 -27.3284 141 -26.5Z"
            fill="#D0D5DD" />
        <path
            d="M160 -26.5C160 -25.6716 159.328 -25 158.5 -25C157.672 -25 157 -25.6716 157 -26.5C157 -27.3284 157.672 -28 158.5 -28C159.328 -28 160 -27.3284 160 -26.5Z"
            fill="#D0D5DD" />
        <path
            d="M179 -26.5C179 -25.6716 178.328 -25 177.5 -25C176.672 -25 176 -25.6716 176 -26.5C176 -27.3284 176.672 -28 177.5 -28C178.328 -28 179 -27.3284 179 -26.5Z"
            fill="#D0D5DD" />
        <path
            d="M198 -26.5C198 -25.6716 197.328 -25 196.5 -25C195.672 -25 195 -25.6716 195 -26.5C195 -27.3284 195.672 -28 196.5 -28C197.328 -28 198 -27.3284 198 -26.5Z"
            fill="#D0D5DD" />
        <path
            d="M217 -26.5C217 -25.6716 216.328 -25 215.5 -25C214.672 -25 214 -25.6716 214 -26.5C214 -27.3284 214.672 -28 215.5 -28C216.328 -28 217 -27.3284 217 -26.5Z"
            fill="#D0D5DD" />
        <path
            d="M236 -26.5C236 -25.6716 235.328 -25 234.5 -25C233.672 -25 233 -25.6716 233 -26.5C233 -27.3284 233.672 -28 234.5 -28C235.328 -28 236 -27.3284 236 -26.5Z"
            fill="#D0D5DD" />
        <path
            d="M255 -26.5C255 -25.6716 254.328 -25 253.5 -25C252.672 -25 252 -25.6716 252 -26.5C252 -27.3284 252.672 -28 253.5 -28C254.328 -28 255 -27.3284 255 -26.5Z"
            fill="#D0D5DD" />
        <path
            d="M274 -26.5C274 -25.6716 273.328 -25 272.5 -25C271.672 -25 271 -25.6716 271 -26.5C271 -27.3284 271.672 -28 272.5 -28C273.328 -28 274 -27.3284 274 -26.5Z"
            fill="#D0D5DD" />
        <path
            d="M293 -26.5C293 -25.6716 292.328 -25 291.5 -25C290.672 -25 290 -25.6716 290 -26.5C290 -27.3284 290.672 -28 291.5 -28C292.328 -28 293 -27.3284 293 -26.5Z"
            fill="#D0D5DD" />
        <path
            d="M312 -26.5C312 -25.6716 311.328 -25 310.5 -25C309.672 -25 309 -25.6716 309 -26.5C309 -27.3284 309.672 -28 310.5 -28C311.328 -28 312 -27.3284 312 -26.5Z"
            fill="#D0D5DD" />
        <path
            d="M331 -26.5C331 -25.6716 330.328 -25 329.5 -25C328.672 -25 328 -25.6716 328 -26.5C328 -27.3284 328.672 -28 329.5 -28C330.328 -28 331 -27.3284 331 -26.5Z"
            fill="#D0D5DD" />
        <path
            d="M8 -7.5C8 -6.67157 7.32843 -6 6.5 -6C5.67157 -6 5 -6.67157 5 -7.5C5 -8.32843 5.67157 -9 6.5 -9C7.32843 -9 8 -8.32843 8 -7.5Z"
            fill="#D0D5DD" />
        <path
            d="M27 -7.5C27 -6.67157 26.3284 -6 25.5 -6C24.6716 -6 24 -6.67157 24 -7.5C24 -8.32843 24.6716 -9 25.5 -9C26.3284 -9 27 -8.32843 27 -7.5Z"
            fill="#D0D5DD" />
        <path
            d="M46 -7.5C46 -6.67157 45.3284 -6 44.5 -6C43.6716 -6 43 -6.67157 43 -7.5C43 -8.32843 43.6716 -9 44.5 -9C45.3284 -9 46 -8.32843 46 -7.5Z"
            fill="#D0D5DD" />
        <path
            d="M65 -7.5C65 -6.67157 64.3284 -6 63.5 -6C62.6716 -6 62 -6.67157 62 -7.5C62 -8.32843 62.6716 -9 63.5 -9C64.3284 -9 65 -8.32843 65 -7.5Z"
            fill="#D0D5DD" />
        <path
            d="M84 -7.5C84 -6.67157 83.3284 -6 82.5 -6C81.6716 -6 81 -6.67157 81 -7.5C81 -8.32843 81.6716 -9 82.5 -9C83.3284 -9 84 -8.32843 84 -7.5Z"
            fill="#D0D5DD" />
        <path
            d="M103 -7.5C103 -6.67157 102.328 -6 101.5 -6C100.672 -6 100 -6.67157 100 -7.5C100 -8.32843 100.672 -9 101.5 -9C102.328 -9 103 -8.32843 103 -7.5Z"
            fill="#D0D5DD" />
        <path
            d="M122 -7.5C122 -6.67157 121.328 -6 120.5 -6C119.672 -6 119 -6.67157 119 -7.5C119 -8.32843 119.672 -9 120.5 -9C121.328 -9 122 -8.32843 122 -7.5Z"
            fill="#D0D5DD" />
        <path
            d="M141 -7.5C141 -6.67157 140.328 -6 139.5 -6C138.672 -6 138 -6.67157 138 -7.5C138 -8.32843 138.672 -9 139.5 -9C140.328 -9 141 -8.32843 141 -7.5Z"
            fill="#D0D5DD" />
        <path
            d="M160 -7.5C160 -6.67157 159.328 -6 158.5 -6C157.672 -6 157 -6.67157 157 -7.5C157 -8.32843 157.672 -9 158.5 -9C159.328 -9 160 -8.32843 160 -7.5Z"
            fill="#D0D5DD" />
        <path
            d="M179 -7.5C179 -6.67157 178.328 -6 177.5 -6C176.672 -6 176 -6.67157 176 -7.5C176 -8.32843 176.672 -9 177.5 -9C178.328 -9 179 -8.32843 179 -7.5Z"
            fill="#D0D5DD" />
        <path
            d="M198 -7.5C198 -6.67157 197.328 -6 196.5 -6C195.672 -6 195 -6.67157 195 -7.5C195 -8.32843 195.672 -9 196.5 -9C197.328 -9 198 -8.32843 198 -7.5Z"
            fill="#D0D5DD" />
        <path
            d="M217 -7.5C217 -6.67157 216.328 -6 215.5 -6C214.672 -6 214 -6.67157 214 -7.5C214 -8.32843 214.672 -9 215.5 -9C216.328 -9 217 -8.32843 217 -7.5Z"
            fill="#D0D5DD" />
        <path
            d="M236 -7.5C236 -6.67157 235.328 -6 234.5 -6C233.672 -6 233 -6.67157 233 -7.5C233 -8.32843 233.672 -9 234.5 -9C235.328 -9 236 -8.32843 236 -7.5Z"
            fill="#D0D5DD" />
        <path
            d="M255 -7.5C255 -6.67157 254.328 -6 253.5 -6C252.672 -6 252 -6.67157 252 -7.5C252 -8.32843 252.672 -9 253.5 -9C254.328 -9 255 -8.32843 255 -7.5Z"
            fill="#D0D5DD" />
        <path
            d="M274 -7.5C274 -6.67157 273.328 -6 272.5 -6C271.672 -6 271 -6.67157 271 -7.5C271 -8.32843 271.672 -9 272.5 -9C273.328 -9 274 -8.32843 274 -7.5Z"
            fill="#D0D5DD" />
        <path
            d="M293 -7.5C293 -6.67157 292.328 -6 291.5 -6C290.672 -6 290 -6.67157 290 -7.5C290 -8.32843 290.672 -9 291.5 -9C292.328 -9 293 -8.32843 293 -7.5Z"
            fill="#D0D5DD" />
        <path
            d="M312 -7.5C312 -6.67157 311.328 -6 310.5 -6C309.672 -6 309 -6.67157 309 -7.5C309 -8.32843 309.672 -9 310.5 -9C311.328 -9 312 -8.32843 312 -7.5Z"
            fill="#D0D5DD" />
        <path
            d="M331 -7.5C331 -6.67157 330.328 -6 329.5 -6C328.672 -6 328 -6.67157 328 -7.5C328 -8.32843 328.672 -9 329.5 -9C330.328 -9 331 -8.32843 331 -7.5Z"
            fill="#D0D5DD" />
        <path
            d="M8 11.5C8 12.3284 7.32843 13 6.5 13C5.67157 13 5 12.3284 5 11.5C5 10.6716 5.67157 10 6.5 10C7.32843 10 8 10.6716 8 11.5Z"
            fill="#D0D5DD" />
        <path
            d="M27 11.5C27 12.3284 26.3284 13 25.5 13C24.6716 13 24 12.3284 24 11.5C24 10.6716 24.6716 10 25.5 10C26.3284 10 27 10.6716 27 11.5Z"
            fill="#D0D5DD" />
        <path
            d="M46 11.5C46 12.3284 45.3284 13 44.5 13C43.6716 13 43 12.3284 43 11.5C43 10.6716 43.6716 10 44.5 10C45.3284 10 46 10.6716 46 11.5Z"
            fill="#D0D5DD" />
        <path
            d="M65 11.5C65 12.3284 64.3284 13 63.5 13C62.6716 13 62 12.3284 62 11.5C62 10.6716 62.6716 10 63.5 10C64.3284 10 65 10.6716 65 11.5Z"
            fill="#D0D5DD" />
        <path
            d="M84 11.5C84 12.3284 83.3284 13 82.5 13C81.6716 13 81 12.3284 81 11.5C81 10.6716 81.6716 10 82.5 10C83.3284 10 84 10.6716 84 11.5Z"
            fill="#D0D5DD" />
        <path
            d="M103 11.5C103 12.3284 102.328 13 101.5 13C100.672 13 100 12.3284 100 11.5C100 10.6716 100.672 10 101.5 10C102.328 10 103 10.6716 103 11.5Z"
            fill="#D0D5DD" />
        <path
            d="M122 11.5C122 12.3284 121.328 13 120.5 13C119.672 13 119 12.3284 119 11.5C119 10.6716 119.672 10 120.5 10C121.328 10 122 10.6716 122 11.5Z"
            fill="#D0D5DD" />
        <path
            d="M141 11.5C141 12.3284 140.328 13 139.5 13C138.672 13 138 12.3284 138 11.5C138 10.6716 138.672 10 139.5 10C140.328 10 141 10.6716 141 11.5Z"
            fill="#D0D5DD" />
        <path
            d="M160 11.5C160 12.3284 159.328 13 158.5 13C157.672 13 157 12.3284 157 11.5C157 10.6716 157.672 10 158.5 10C159.328 10 160 10.6716 160 11.5Z"
            fill="#D0D5DD" />
        <path
            d="M179 11.5C179 12.3284 178.328 13 177.5 13C176.672 13 176 12.3284 176 11.5C176 10.6716 176.672 10 177.5 10C178.328 10 179 10.6716 179 11.5Z"
            fill="#D0D5DD" />
        <path
            d="M198 11.5C198 12.3284 197.328 13 196.5 13C195.672 13 195 12.3284 195 11.5C195 10.6716 195.672 10 196.5 10C197.328 10 198 10.6716 198 11.5Z"
            fill="#D0D5DD" />
        <path
            d="M217 11.5C217 12.3284 216.328 13 215.5 13C214.672 13 214 12.3284 214 11.5C214 10.6716 214.672 10 215.5 10C216.328 10 217 10.6716 217 11.5Z"
            fill="#D0D5DD" />
        <path
            d="M236 11.5C236 12.3284 235.328 13 234.5 13C233.672 13 233 12.3284 233 11.5C233 10.6716 233.672 10 234.5 10C235.328 10 236 10.6716 236 11.5Z"
            fill="#D0D5DD" />
        <path
            d="M255 11.5C255 12.3284 254.328 13 253.5 13C252.672 13 252 12.3284 252 11.5C252 10.6716 252.672 10 253.5 10C254.328 10 255 10.6716 255 11.5Z"
            fill="#D0D5DD" />
        <path
            d="M274 11.5C274 12.3284 273.328 13 272.5 13C271.672 13 271 12.3284 271 11.5C271 10.6716 271.672 10 272.5 10C273.328 10 274 10.6716 274 11.5Z"
            fill="#D0D5DD" />
        <path
            d="M293 11.5C293 12.3284 292.328 13 291.5 13C290.672 13 290 12.3284 290 11.5C290 10.6716 290.672 10 291.5 10C292.328 10 293 10.6716 293 11.5Z"
            fill="#D0D5DD" />
        <path
            d="M312 11.5C312 12.3284 311.328 13 310.5 13C309.672 13 309 12.3284 309 11.5C309 10.6716 309.672 10 310.5 10C311.328 10 312 10.6716 312 11.5Z"
            fill="#D0D5DD" />
        <path
            d="M331 11.5C331 12.3284 330.328 13 329.5 13C328.672 13 328 12.3284 328 11.5C328 10.6716 328.672 10 329.5 10C330.328 10 331 10.6716 331 11.5Z"
            fill="#D0D5DD" />
        <path
            d="M8 30.5C8 31.3284 7.32843 32 6.5 32C5.67157 32 5 31.3284 5 30.5C5 29.6716 5.67157 29 6.5 29C7.32843 29 8 29.6716 8 30.5Z"
            fill="#D0D5DD" />
        <path
            d="M27 30.5C27 31.3284 26.3284 32 25.5 32C24.6716 32 24 31.3284 24 30.5C24 29.6716 24.6716 29 25.5 29C26.3284 29 27 29.6716 27 30.5Z"
            fill="#D0D5DD" />
        <path
            d="M46 30.5C46 31.3284 45.3284 32 44.5 32C43.6716 32 43 31.3284 43 30.5C43 29.6716 43.6716 29 44.5 29C45.3284 29 46 29.6716 46 30.5Z"
            fill="#D0D5DD" />
        <path
            d="M65 30.5C65 31.3284 64.3284 32 63.5 32C62.6716 32 62 31.3284 62 30.5C62 29.6716 62.6716 29 63.5 29C64.3284 29 65 29.6716 65 30.5Z"
            fill="#D0D5DD" />
        <path
            d="M84 30.5C84 31.3284 83.3284 32 82.5 32C81.6716 32 81 31.3284 81 30.5C81 29.6716 81.6716 29 82.5 29C83.3284 29 84 29.6716 84 30.5Z"
            fill="#D0D5DD" />
        <path
            d="M103 30.5C103 31.3284 102.328 32 101.5 32C100.672 32 100 31.3284 100 30.5C100 29.6716 100.672 29 101.5 29C102.328 29 103 29.6716 103 30.5Z"
            fill="#D0D5DD" />
        <path
            d="M122 30.5C122 31.3284 121.328 32 120.5 32C119.672 32 119 31.3284 119 30.5C119 29.6716 119.672 29 120.5 29C121.328 29 122 29.6716 122 30.5Z"
            fill="#D0D5DD" />
        <path
            d="M141 30.5C141 31.3284 140.328 32 139.5 32C138.672 32 138 31.3284 138 30.5C138 29.6716 138.672 29 139.5 29C140.328 29 141 29.6716 141 30.5Z"
            fill="#D0D5DD" />
        <path
            d="M160 30.5C160 31.3284 159.328 32 158.5 32C157.672 32 157 31.3284 157 30.5C157 29.6716 157.672 29 158.5 29C159.328 29 160 29.6716 160 30.5Z"
            fill="#D0D5DD" />
        <path
            d="M179 30.5C179 31.3284 178.328 32 177.5 32C176.672 32 176 31.3284 176 30.5C176 29.6716 176.672 29 177.5 29C178.328 29 179 29.6716 179 30.5Z"
            fill="#D0D5DD" />
        <path
            d="M198 30.5C198 31.3284 197.328 32 196.5 32C195.672 32 195 31.3284 195 30.5C195 29.6716 195.672 29 196.5 29C197.328 29 198 29.6716 198 30.5Z"
            fill="#D0D5DD" />
        <path
            d="M217 30.5C217 31.3284 216.328 32 215.5 32C214.672 32 214 31.3284 214 30.5C214 29.6716 214.672 29 215.5 29C216.328 29 217 29.6716 217 30.5Z"
            fill="#D0D5DD" />
        <path
            d="M236 30.5C236 31.3284 235.328 32 234.5 32C233.672 32 233 31.3284 233 30.5C233 29.6716 233.672 29 234.5 29C235.328 29 236 29.6716 236 30.5Z"
            fill="#D0D5DD" />
        <path
            d="M255 30.5C255 31.3284 254.328 32 253.5 32C252.672 32 252 31.3284 252 30.5C252 29.6716 252.672 29 253.5 29C254.328 29 255 29.6716 255 30.5Z"
            fill="#D0D5DD" />
        <path
            d="M274 30.5C274 31.3284 273.328 32 272.5 32C271.672 32 271 31.3284 271 30.5C271 29.6716 271.672 29 272.5 29C273.328 29 274 29.6716 274 30.5Z"
            fill="#D0D5DD" />
        <path
            d="M293 30.5C293 31.3284 292.328 32 291.5 32C290.672 32 290 31.3284 290 30.5C290 29.6716 290.672 29 291.5 29C292.328 29 293 29.6716 293 30.5Z"
            fill="#D0D5DD" />
        <path
            d="M312 30.5C312 31.3284 311.328 32 310.5 32C309.672 32 309 31.3284 309 30.5C309 29.6716 309.672 29 310.5 29C311.328 29 312 29.6716 312 30.5Z"
            fill="#D0D5DD" />
        <path
            d="M331 30.5C331 31.3284 330.328 32 329.5 32C328.672 32 328 31.3284 328 30.5C328 29.6716 328.672 29 329.5 29C330.328 29 331 29.6716 331 30.5Z"
            fill="#D0D5DD" />
        <path
            d="M8 49.5C8 50.3284 7.32843 51 6.5 51C5.67157 51 5 50.3284 5 49.5C5 48.6716 5.67157 48 6.5 48C7.32843 48 8 48.6716 8 49.5Z"
            fill="#D0D5DD" />
        <path
            d="M27 49.5C27 50.3284 26.3284 51 25.5 51C24.6716 51 24 50.3284 24 49.5C24 48.6716 24.6716 48 25.5 48C26.3284 48 27 48.6716 27 49.5Z"
            fill="#D0D5DD" />
        <path
            d="M46 49.5C46 50.3284 45.3284 51 44.5 51C43.6716 51 43 50.3284 43 49.5C43 48.6716 43.6716 48 44.5 48C45.3284 48 46 48.6716 46 49.5Z"
            fill="#D0D5DD" />
        <path
            d="M65 49.5C65 50.3284 64.3284 51 63.5 51C62.6716 51 62 50.3284 62 49.5C62 48.6716 62.6716 48 63.5 48C64.3284 48 65 48.6716 65 49.5Z"
            fill="#D0D5DD" />
        <path
            d="M84 49.5C84 50.3284 83.3284 51 82.5 51C81.6716 51 81 50.3284 81 49.5C81 48.6716 81.6716 48 82.5 48C83.3284 48 84 48.6716 84 49.5Z"
            fill="#D0D5DD" />
        <path
            d="M103 49.5C103 50.3284 102.328 51 101.5 51C100.672 51 100 50.3284 100 49.5C100 48.6716 100.672 48 101.5 48C102.328 48 103 48.6716 103 49.5Z"
            fill="#D0D5DD" />
        <path
            d="M122 49.5C122 50.3284 121.328 51 120.5 51C119.672 51 119 50.3284 119 49.5C119 48.6716 119.672 48 120.5 48C121.328 48 122 48.6716 122 49.5Z"
            fill="#D0D5DD" />
        <path
            d="M141 49.5C141 50.3284 140.328 51 139.5 51C138.672 51 138 50.3284 138 49.5C138 48.6716 138.672 48 139.5 48C140.328 48 141 48.6716 141 49.5Z"
            fill="#D0D5DD" />
        <path
            d="M160 49.5C160 50.3284 159.328 51 158.5 51C157.672 51 157 50.3284 157 49.5C157 48.6716 157.672 48 158.5 48C159.328 48 160 48.6716 160 49.5Z"
            fill="#D0D5DD" />
        <path
            d="M179 49.5C179 50.3284 178.328 51 177.5 51C176.672 51 176 50.3284 176 49.5C176 48.6716 176.672 48 177.5 48C178.328 48 179 48.6716 179 49.5Z"
            fill="#D0D5DD" />
        <path
            d="M198 49.5C198 50.3284 197.328 51 196.5 51C195.672 51 195 50.3284 195 49.5C195 48.6716 195.672 48 196.5 48C197.328 48 198 48.6716 198 49.5Z"
            fill="#D0D5DD" />
        <path
            d="M217 49.5C217 50.3284 216.328 51 215.5 51C214.672 51 214 50.3284 214 49.5C214 48.6716 214.672 48 215.5 48C216.328 48 217 48.6716 217 49.5Z"
            fill="#D0D5DD" />
        <path
            d="M236 49.5C236 50.3284 235.328 51 234.5 51C233.672 51 233 50.3284 233 49.5C233 48.6716 233.672 48 234.5 48C235.328 48 236 48.6716 236 49.5Z"
            fill="#D0D5DD" />
        <path
            d="M255 49.5C255 50.3284 254.328 51 253.5 51C252.672 51 252 50.3284 252 49.5C252 48.6716 252.672 48 253.5 48C254.328 48 255 48.6716 255 49.5Z"
            fill="#D0D5DD" />
        <path
            d="M274 49.5C274 50.3284 273.328 51 272.5 51C271.672 51 271 50.3284 271 49.5C271 48.6716 271.672 48 272.5 48C273.328 48 274 48.6716 274 49.5Z"
            fill="#D0D5DD" />
        <path
            d="M293 49.5C293 50.3284 292.328 51 291.5 51C290.672 51 290 50.3284 290 49.5C290 48.6716 290.672 48 291.5 48C292.328 48 293 48.6716 293 49.5Z"
            fill="#D0D5DD" />
        <path
            d="M312 49.5C312 50.3284 311.328 51 310.5 51C309.672 51 309 50.3284 309 49.5C309 48.6716 309.672 48 310.5 48C311.328 48 312 48.6716 312 49.5Z"
            fill="#D0D5DD" />
        <path
            d="M331 49.5C331 50.3284 330.328 51 329.5 51C328.672 51 328 50.3284 328 49.5C328 48.6716 328.672 48 329.5 48C330.328 48 331 48.6716 331 49.5Z"
            fill="#D0D5DD" />
        <path
            d="M8 68.5C8 69.3284 7.32843 70 6.5 70C5.67157 70 5 69.3284 5 68.5C5 67.6716 5.67157 67 6.5 67C7.32843 67 8 67.6716 8 68.5Z"
            fill="#D0D5DD" />
        <path
            d="M27 68.5C27 69.3284 26.3284 70 25.5 70C24.6716 70 24 69.3284 24 68.5C24 67.6716 24.6716 67 25.5 67C26.3284 67 27 67.6716 27 68.5Z"
            fill="#D0D5DD" />
        <path
            d="M46 68.5C46 69.3284 45.3284 70 44.5 70C43.6716 70 43 69.3284 43 68.5C43 67.6716 43.6716 67 44.5 67C45.3284 67 46 67.6716 46 68.5Z"
            fill="#D0D5DD" />
        <path
            d="M65 68.5C65 69.3284 64.3284 70 63.5 70C62.6716 70 62 69.3284 62 68.5C62 67.6716 62.6716 67 63.5 67C64.3284 67 65 67.6716 65 68.5Z"
            fill="#D0D5DD" />
        <path
            d="M84 68.5C84 69.3284 83.3284 70 82.5 70C81.6716 70 81 69.3284 81 68.5C81 67.6716 81.6716 67 82.5 67C83.3284 67 84 67.6716 84 68.5Z"
            fill="#D0D5DD" />
        <path
            d="M103 68.5C103 69.3284 102.328 70 101.5 70C100.672 70 100 69.3284 100 68.5C100 67.6716 100.672 67 101.5 67C102.328 67 103 67.6716 103 68.5Z"
            fill="#D0D5DD" />
        <path
            d="M122 68.5C122 69.3284 121.328 70 120.5 70C119.672 70 119 69.3284 119 68.5C119 67.6716 119.672 67 120.5 67C121.328 67 122 67.6716 122 68.5Z"
            fill="#D0D5DD" />
        <path
            d="M141 68.5C141 69.3284 140.328 70 139.5 70C138.672 70 138 69.3284 138 68.5C138 67.6716 138.672 67 139.5 67C140.328 67 141 67.6716 141 68.5Z"
            fill="#D0D5DD" />
        <path
            d="M160 68.5C160 69.3284 159.328 70 158.5 70C157.672 70 157 69.3284 157 68.5C157 67.6716 157.672 67 158.5 67C159.328 67 160 67.6716 160 68.5Z"
            fill="#D0D5DD" />
        <path
            d="M179 68.5C179 69.3284 178.328 70 177.5 70C176.672 70 176 69.3284 176 68.5C176 67.6716 176.672 67 177.5 67C178.328 67 179 67.6716 179 68.5Z"
            fill="#D0D5DD" />
        <path
            d="M198 68.5C198 69.3284 197.328 70 196.5 70C195.672 70 195 69.3284 195 68.5C195 67.6716 195.672 67 196.5 67C197.328 67 198 67.6716 198 68.5Z"
            fill="#D0D5DD" />
        <path
            d="M217 68.5C217 69.3284 216.328 70 215.5 70C214.672 70 214 69.3284 214 68.5C214 67.6716 214.672 67 215.5 67C216.328 67 217 67.6716 217 68.5Z"
            fill="#D0D5DD" />
        <path
            d="M236 68.5C236 69.3284 235.328 70 234.5 70C233.672 70 233 69.3284 233 68.5C233 67.6716 233.672 67 234.5 67C235.328 67 236 67.6716 236 68.5Z"
            fill="#D0D5DD" />
        <path
            d="M255 68.5C255 69.3284 254.328 70 253.5 70C252.672 70 252 69.3284 252 68.5C252 67.6716 252.672 67 253.5 67C254.328 67 255 67.6716 255 68.5Z"
            fill="#D0D5DD" />
        <path
            d="M274 68.5C274 69.3284 273.328 70 272.5 70C271.672 70 271 69.3284 271 68.5C271 67.6716 271.672 67 272.5 67C273.328 67 274 67.6716 274 68.5Z"
            fill="#D0D5DD" />
        <path
            d="M293 68.5C293 69.3284 292.328 70 291.5 70C290.672 70 290 69.3284 290 68.5C290 67.6716 290.672 67 291.5 67C292.328 67 293 67.6716 293 68.5Z"
            fill="#D0D5DD" />
        <path
            d="M312 68.5C312 69.3284 311.328 70 310.5 70C309.672 70 309 69.3284 309 68.5C309 67.6716 309.672 67 310.5 67C311.328 67 312 67.6716 312 68.5Z"
            fill="#D0D5DD" />
        <path
            d="M331 68.5C331 69.3284 330.328 70 329.5 70C328.672 70 328 69.3284 328 68.5C328 67.6716 328.672 67 329.5 67C330.328 67 331 67.6716 331 68.5Z"
            fill="#D0D5DD" />
        <path
            d="M8 87.5C8 88.3284 7.32843 89 6.5 89C5.67157 89 5 88.3284 5 87.5C5 86.6716 5.67157 86 6.5 86C7.32843 86 8 86.6716 8 87.5Z"
            fill="#D0D5DD" />
        <path
            d="M27 87.5C27 88.3284 26.3284 89 25.5 89C24.6716 89 24 88.3284 24 87.5C24 86.6716 24.6716 86 25.5 86C26.3284 86 27 86.6716 27 87.5Z"
            fill="#D0D5DD" />
        <path
            d="M46 87.5C46 88.3284 45.3284 89 44.5 89C43.6716 89 43 88.3284 43 87.5C43 86.6716 43.6716 86 44.5 86C45.3284 86 46 86.6716 46 87.5Z"
            fill="#D0D5DD" />
        <path
            d="M65 87.5C65 88.3284 64.3284 89 63.5 89C62.6716 89 62 88.3284 62 87.5C62 86.6716 62.6716 86 63.5 86C64.3284 86 65 86.6716 65 87.5Z"
            fill="#D0D5DD" />
        <path
            d="M84 87.5C84 88.3284 83.3284 89 82.5 89C81.6716 89 81 88.3284 81 87.5C81 86.6716 81.6716 86 82.5 86C83.3284 86 84 86.6716 84 87.5Z"
            fill="#D0D5DD" />
        <path
            d="M103 87.5C103 88.3284 102.328 89 101.5 89C100.672 89 100 88.3284 100 87.5C100 86.6716 100.672 86 101.5 86C102.328 86 103 86.6716 103 87.5Z"
            fill="#D0D5DD" />
        <path
            d="M122 87.5C122 88.3284 121.328 89 120.5 89C119.672 89 119 88.3284 119 87.5C119 86.6716 119.672 86 120.5 86C121.328 86 122 86.6716 122 87.5Z"
            fill="#D0D5DD" />
        <path
            d="M141 87.5C141 88.3284 140.328 89 139.5 89C138.672 89 138 88.3284 138 87.5C138 86.6716 138.672 86 139.5 86C140.328 86 141 86.6716 141 87.5Z"
            fill="#D0D5DD" />
        <path
            d="M160 87.5C160 88.3284 159.328 89 158.5 89C157.672 89 157 88.3284 157 87.5C157 86.6716 157.672 86 158.5 86C159.328 86 160 86.6716 160 87.5Z"
            fill="#D0D5DD" />
        <path
            d="M179 87.5C179 88.3284 178.328 89 177.5 89C176.672 89 176 88.3284 176 87.5C176 86.6716 176.672 86 177.5 86C178.328 86 179 86.6716 179 87.5Z"
            fill="#D0D5DD" />
        <path
            d="M198 87.5C198 88.3284 197.328 89 196.5 89C195.672 89 195 88.3284 195 87.5C195 86.6716 195.672 86 196.5 86C197.328 86 198 86.6716 198 87.5Z"
            fill="#D0D5DD" />
        <path
            d="M217 87.5C217 88.3284 216.328 89 215.5 89C214.672 89 214 88.3284 214 87.5C214 86.6716 214.672 86 215.5 86C216.328 86 217 86.6716 217 87.5Z"
            fill="#D0D5DD" />
        <path
            d="M236 87.5C236 88.3284 235.328 89 234.5 89C233.672 89 233 88.3284 233 87.5C233 86.6716 233.672 86 234.5 86C235.328 86 236 86.6716 236 87.5Z"
            fill="#D0D5DD" />
        <path
            d="M255 87.5C255 88.3284 254.328 89 253.5 89C252.672 89 252 88.3284 252 87.5C252 86.6716 252.672 86 253.5 86C254.328 86 255 86.6716 255 87.5Z"
            fill="#D0D5DD" />
        <path
            d="M274 87.5C274 88.3284 273.328 89 272.5 89C271.672 89 271 88.3284 271 87.5C271 86.6716 271.672 86 272.5 86C273.328 86 274 86.6716 274 87.5Z"
            fill="#D0D5DD" />
        <path
            d="M293 87.5C293 88.3284 292.328 89 291.5 89C290.672 89 290 88.3284 290 87.5C290 86.6716 290.672 86 291.5 86C292.328 86 293 86.6716 293 87.5Z"
            fill="#D0D5DD" />
        <path
            d="M312 87.5C312 88.3284 311.328 89 310.5 89C309.672 89 309 88.3284 309 87.5C309 86.6716 309.672 86 310.5 86C311.328 86 312 86.6716 312 87.5Z"
            fill="#D0D5DD" />
        <path
            d="M331 87.5C331 88.3284 330.328 89 329.5 89C328.672 89 328 88.3284 328 87.5C328 86.6716 328.672 86 329.5 86C330.328 86 331 86.6716 331 87.5Z"
            fill="#D0D5DD" />
        <path
            d="M8 106.5C8 107.328 7.32843 108 6.5 108C5.67157 108 5 107.328 5 106.5C5 105.672 5.67157 105 6.5 105C7.32843 105 8 105.672 8 106.5Z"
            fill="#D0D5DD" />
        <path
            d="M27 106.5C27 107.328 26.3284 108 25.5 108C24.6716 108 24 107.328 24 106.5C24 105.672 24.6716 105 25.5 105C26.3284 105 27 105.672 27 106.5Z"
            fill="#D0D5DD" />
        <path
            d="M46 106.5C46 107.328 45.3284 108 44.5 108C43.6716 108 43 107.328 43 106.5C43 105.672 43.6716 105 44.5 105C45.3284 105 46 105.672 46 106.5Z"
            fill="#D0D5DD" />
        <path
            d="M65 106.5C65 107.328 64.3284 108 63.5 108C62.6716 108 62 107.328 62 106.5C62 105.672 62.6716 105 63.5 105C64.3284 105 65 105.672 65 106.5Z"
            fill="#D0D5DD" />
        <path
            d="M84 106.5C84 107.328 83.3284 108 82.5 108C81.6716 108 81 107.328 81 106.5C81 105.672 81.6716 105 82.5 105C83.3284 105 84 105.672 84 106.5Z"
            fill="#D0D5DD" />
        <path
            d="M103 106.5C103 107.328 102.328 108 101.5 108C100.672 108 100 107.328 100 106.5C100 105.672 100.672 105 101.5 105C102.328 105 103 105.672 103 106.5Z"
            fill="#D0D5DD" />
        <path
            d="M122 106.5C122 107.328 121.328 108 120.5 108C119.672 108 119 107.328 119 106.5C119 105.672 119.672 105 120.5 105C121.328 105 122 105.672 122 106.5Z"
            fill="#D0D5DD" />
        <path
            d="M141 106.5C141 107.328 140.328 108 139.5 108C138.672 108 138 107.328 138 106.5C138 105.672 138.672 105 139.5 105C140.328 105 141 105.672 141 106.5Z"
            fill="#D0D5DD" />
        <path
            d="M160 106.5C160 107.328 159.328 108 158.5 108C157.672 108 157 107.328 157 106.5C157 105.672 157.672 105 158.5 105C159.328 105 160 105.672 160 106.5Z"
            fill="#D0D5DD" />
        <path
            d="M179 106.5C179 107.328 178.328 108 177.5 108C176.672 108 176 107.328 176 106.5C176 105.672 176.672 105 177.5 105C178.328 105 179 105.672 179 106.5Z"
            fill="#D0D5DD" />
        <path
            d="M198 106.5C198 107.328 197.328 108 196.5 108C195.672 108 195 107.328 195 106.5C195 105.672 195.672 105 196.5 105C197.328 105 198 105.672 198 106.5Z"
            fill="#D0D5DD" />
        <path
            d="M217 106.5C217 107.328 216.328 108 215.5 108C214.672 108 214 107.328 214 106.5C214 105.672 214.672 105 215.5 105C216.328 105 217 105.672 217 106.5Z"
            fill="#D0D5DD" />
        <path
            d="M236 106.5C236 107.328 235.328 108 234.5 108C233.672 108 233 107.328 233 106.5C233 105.672 233.672 105 234.5 105C235.328 105 236 105.672 236 106.5Z"
            fill="#D0D5DD" />
        <path
            d="M255 106.5C255 107.328 254.328 108 253.5 108C252.672 108 252 107.328 252 106.5C252 105.672 252.672 105 253.5 105C254.328 105 255 105.672 255 106.5Z"
            fill="#D0D5DD" />
        <path
            d="M274 106.5C274 107.328 273.328 108 272.5 108C271.672 108 271 107.328 271 106.5C271 105.672 271.672 105 272.5 105C273.328 105 274 105.672 274 106.5Z"
            fill="#D0D5DD" />
        <path
            d="M293 106.5C293 107.328 292.328 108 291.5 108C290.672 108 290 107.328 290 106.5C290 105.672 290.672 105 291.5 105C292.328 105 293 105.672 293 106.5Z"
            fill="#D0D5DD" />
        <path
            d="M312 106.5C312 107.328 311.328 108 310.5 108C309.672 108 309 107.328 309 106.5C309 105.672 309.672 105 310.5 105C311.328 105 312 105.672 312 106.5Z"
            fill="#D0D5DD" />
        <path
            d="M331 106.5C331 107.328 330.328 108 329.5 108C328.672 108 328 107.328 328 106.5C328 105.672 328.672 105 329.5 105C330.328 105 331 105.672 331 106.5Z"
            fill="#D0D5DD" />
        <path
            d="M8 125.5C8 126.328 7.32843 127 6.5 127C5.67157 127 5 126.328 5 125.5C5 124.672 5.67157 124 6.5 124C7.32843 124 8 124.672 8 125.5Z"
            fill="#D0D5DD" />
        <path
            d="M27 125.5C27 126.328 26.3284 127 25.5 127C24.6716 127 24 126.328 24 125.5C24 124.672 24.6716 124 25.5 124C26.3284 124 27 124.672 27 125.5Z"
            fill="#D0D5DD" />
        <path
            d="M46 125.5C46 126.328 45.3284 127 44.5 127C43.6716 127 43 126.328 43 125.5C43 124.672 43.6716 124 44.5 124C45.3284 124 46 124.672 46 125.5Z"
            fill="#D0D5DD" />
        <path
            d="M65 125.5C65 126.328 64.3284 127 63.5 127C62.6716 127 62 126.328 62 125.5C62 124.672 62.6716 124 63.5 124C64.3284 124 65 124.672 65 125.5Z"
            fill="#D0D5DD" />
        <path
            d="M84 125.5C84 126.328 83.3284 127 82.5 127C81.6716 127 81 126.328 81 125.5C81 124.672 81.6716 124 82.5 124C83.3284 124 84 124.672 84 125.5Z"
            fill="#D0D5DD" />
        <path
            d="M103 125.5C103 126.328 102.328 127 101.5 127C100.672 127 100 126.328 100 125.5C100 124.672 100.672 124 101.5 124C102.328 124 103 124.672 103 125.5Z"
            fill="#D0D5DD" />
        <path
            d="M122 125.5C122 126.328 121.328 127 120.5 127C119.672 127 119 126.328 119 125.5C119 124.672 119.672 124 120.5 124C121.328 124 122 124.672 122 125.5Z"
            fill="#D0D5DD" />
        <path
            d="M141 125.5C141 126.328 140.328 127 139.5 127C138.672 127 138 126.328 138 125.5C138 124.672 138.672 124 139.5 124C140.328 124 141 124.672 141 125.5Z"
            fill="#D0D5DD" />
        <path
            d="M160 125.5C160 126.328 159.328 127 158.5 127C157.672 127 157 126.328 157 125.5C157 124.672 157.672 124 158.5 124C159.328 124 160 124.672 160 125.5Z"
            fill="#D0D5DD" />
        <path
            d="M179 125.5C179 126.328 178.328 127 177.5 127C176.672 127 176 126.328 176 125.5C176 124.672 176.672 124 177.5 124C178.328 124 179 124.672 179 125.5Z"
            fill="#D0D5DD" />
        <path
            d="M198 125.5C198 126.328 197.328 127 196.5 127C195.672 127 195 126.328 195 125.5C195 124.672 195.672 124 196.5 124C197.328 124 198 124.672 198 125.5Z"
            fill="#D0D5DD" />
        <path
            d="M217 125.5C217 126.328 216.328 127 215.5 127C214.672 127 214 126.328 214 125.5C214 124.672 214.672 124 215.5 124C216.328 124 217 124.672 217 125.5Z"
            fill="#D0D5DD" />
        <path
            d="M236 125.5C236 126.328 235.328 127 234.5 127C233.672 127 233 126.328 233 125.5C233 124.672 233.672 124 234.5 124C235.328 124 236 124.672 236 125.5Z"
            fill="#D0D5DD" />
        <path
            d="M255 125.5C255 126.328 254.328 127 253.5 127C252.672 127 252 126.328 252 125.5C252 124.672 252.672 124 253.5 124C254.328 124 255 124.672 255 125.5Z"
            fill="#D0D5DD" />
        <path
            d="M274 125.5C274 126.328 273.328 127 272.5 127C271.672 127 271 126.328 271 125.5C271 124.672 271.672 124 272.5 124C273.328 124 274 124.672 274 125.5Z"
            fill="#D0D5DD" />
        <path
            d="M293 125.5C293 126.328 292.328 127 291.5 127C290.672 127 290 126.328 290 125.5C290 124.672 290.672 124 291.5 124C292.328 124 293 124.672 293 125.5Z"
            fill="#D0D5DD" />
        <path
            d="M312 125.5C312 126.328 311.328 127 310.5 127C309.672 127 309 126.328 309 125.5C309 124.672 309.672 124 310.5 124C311.328 124 312 124.672 312 125.5Z"
            fill="#D0D5DD" />
        <path
            d="M331 125.5C331 126.328 330.328 127 329.5 127C328.672 127 328 126.328 328 125.5C328 124.672 328.672 124 329.5 124C330.328 124 331 124.672 331 125.5Z"
            fill="#D0D5DD" />
        <path
            d="M8 144.5C8 145.328 7.32843 146 6.5 146C5.67157 146 5 145.328 5 144.5C5 143.672 5.67157 143 6.5 143C7.32843 143 8 143.672 8 144.5Z"
            fill="#D0D5DD" />
        <path
            d="M27 144.5C27 145.328 26.3284 146 25.5 146C24.6716 146 24 145.328 24 144.5C24 143.672 24.6716 143 25.5 143C26.3284 143 27 143.672 27 144.5Z"
            fill="#D0D5DD" />
        <path
            d="M46 144.5C46 145.328 45.3284 146 44.5 146C43.6716 146 43 145.328 43 144.5C43 143.672 43.6716 143 44.5 143C45.3284 143 46 143.672 46 144.5Z"
            fill="#D0D5DD" />
        <path
            d="M65 144.5C65 145.328 64.3284 146 63.5 146C62.6716 146 62 145.328 62 144.5C62 143.672 62.6716 143 63.5 143C64.3284 143 65 143.672 65 144.5Z"
            fill="#D0D5DD" />
        <path
            d="M84 144.5C84 145.328 83.3284 146 82.5 146C81.6716 146 81 145.328 81 144.5C81 143.672 81.6716 143 82.5 143C83.3284 143 84 143.672 84 144.5Z"
            fill="#D0D5DD" />
        <path
            d="M103 144.5C103 145.328 102.328 146 101.5 146C100.672 146 100 145.328 100 144.5C100 143.672 100.672 143 101.5 143C102.328 143 103 143.672 103 144.5Z"
            fill="#D0D5DD" />
        <path
            d="M122 144.5C122 145.328 121.328 146 120.5 146C119.672 146 119 145.328 119 144.5C119 143.672 119.672 143 120.5 143C121.328 143 122 143.672 122 144.5Z"
            fill="#D0D5DD" />
        <path
            d="M141 144.5C141 145.328 140.328 146 139.5 146C138.672 146 138 145.328 138 144.5C138 143.672 138.672 143 139.5 143C140.328 143 141 143.672 141 144.5Z"
            fill="#D0D5DD" />
        <path
            d="M160 144.5C160 145.328 159.328 146 158.5 146C157.672 146 157 145.328 157 144.5C157 143.672 157.672 143 158.5 143C159.328 143 160 143.672 160 144.5Z"
            fill="#D0D5DD" />
        <path
            d="M179 144.5C179 145.328 178.328 146 177.5 146C176.672 146 176 145.328 176 144.5C176 143.672 176.672 143 177.5 143C178.328 143 179 143.672 179 144.5Z"
            fill="#D0D5DD" />
        <path
            d="M198 144.5C198 145.328 197.328 146 196.5 146C195.672 146 195 145.328 195 144.5C195 143.672 195.672 143 196.5 143C197.328 143 198 143.672 198 144.5Z"
            fill="#D0D5DD" />
        <path
            d="M217 144.5C217 145.328 216.328 146 215.5 146C214.672 146 214 145.328 214 144.5C214 143.672 214.672 143 215.5 143C216.328 143 217 143.672 217 144.5Z"
            fill="#D0D5DD" />
        <path
            d="M236 144.5C236 145.328 235.328 146 234.5 146C233.672 146 233 145.328 233 144.5C233 143.672 233.672 143 234.5 143C235.328 143 236 143.672 236 144.5Z"
            fill="#D0D5DD" />
        <path
            d="M255 144.5C255 145.328 254.328 146 253.5 146C252.672 146 252 145.328 252 144.5C252 143.672 252.672 143 253.5 143C254.328 143 255 143.672 255 144.5Z"
            fill="#D0D5DD" />
        <path
            d="M274 144.5C274 145.328 273.328 146 272.5 146C271.672 146 271 145.328 271 144.5C271 143.672 271.672 143 272.5 143C273.328 143 274 143.672 274 144.5Z"
            fill="#D0D5DD" />
        <path
            d="M293 144.5C293 145.328 292.328 146 291.5 146C290.672 146 290 145.328 290 144.5C290 143.672 290.672 143 291.5 143C292.328 143 293 143.672 293 144.5Z"
            fill="#D0D5DD" />
        <path
            d="M312 144.5C312 145.328 311.328 146 310.5 146C309.672 146 309 145.328 309 144.5C309 143.672 309.672 143 310.5 143C311.328 143 312 143.672 312 144.5Z"
            fill="#D0D5DD" />
        <path
            d="M331 144.5C331 145.328 330.328 146 329.5 146C328.672 146 328 145.328 328 144.5C328 143.672 328.672 143 329.5 143C330.328 143 331 143.672 331 144.5Z"
            fill="#D0D5DD" />
        <path
            d="M8 163.5C8 164.328 7.32843 165 6.5 165C5.67157 165 5 164.328 5 163.5C5 162.672 5.67157 162 6.5 162C7.32843 162 8 162.672 8 163.5Z"
            fill="#D0D5DD" />
        <path
            d="M27 163.5C27 164.328 26.3284 165 25.5 165C24.6716 165 24 164.328 24 163.5C24 162.672 24.6716 162 25.5 162C26.3284 162 27 162.672 27 163.5Z"
            fill="#D0D5DD" />
        <path
            d="M46 163.5C46 164.328 45.3284 165 44.5 165C43.6716 165 43 164.328 43 163.5C43 162.672 43.6716 162 44.5 162C45.3284 162 46 162.672 46 163.5Z"
            fill="#D0D5DD" />
        <path
            d="M65 163.5C65 164.328 64.3284 165 63.5 165C62.6716 165 62 164.328 62 163.5C62 162.672 62.6716 162 63.5 162C64.3284 162 65 162.672 65 163.5Z"
            fill="#D0D5DD" />
        <path
            d="M84 163.5C84 164.328 83.3284 165 82.5 165C81.6716 165 81 164.328 81 163.5C81 162.672 81.6716 162 82.5 162C83.3284 162 84 162.672 84 163.5Z"
            fill="#D0D5DD" />
        <path
            d="M103 163.5C103 164.328 102.328 165 101.5 165C100.672 165 100 164.328 100 163.5C100 162.672 100.672 162 101.5 162C102.328 162 103 162.672 103 163.5Z"
            fill="#D0D5DD" />
        <path
            d="M122 163.5C122 164.328 121.328 165 120.5 165C119.672 165 119 164.328 119 163.5C119 162.672 119.672 162 120.5 162C121.328 162 122 162.672 122 163.5Z"
            fill="#D0D5DD" />
        <path
            d="M141 163.5C141 164.328 140.328 165 139.5 165C138.672 165 138 164.328 138 163.5C138 162.672 138.672 162 139.5 162C140.328 162 141 162.672 141 163.5Z"
            fill="#D0D5DD" />
        <path
            d="M160 163.5C160 164.328 159.328 165 158.5 165C157.672 165 157 164.328 157 163.5C157 162.672 157.672 162 158.5 162C159.328 162 160 162.672 160 163.5Z"
            fill="#D0D5DD" />
        <path
            d="M179 163.5C179 164.328 178.328 165 177.5 165C176.672 165 176 164.328 176 163.5C176 162.672 176.672 162 177.5 162C178.328 162 179 162.672 179 163.5Z"
            fill="#D0D5DD" />
        <path
            d="M198 163.5C198 164.328 197.328 165 196.5 165C195.672 165 195 164.328 195 163.5C195 162.672 195.672 162 196.5 162C197.328 162 198 162.672 198 163.5Z"
            fill="#D0D5DD" />
        <path
            d="M217 163.5C217 164.328 216.328 165 215.5 165C214.672 165 214 164.328 214 163.5C214 162.672 214.672 162 215.5 162C216.328 162 217 162.672 217 163.5Z"
            fill="#D0D5DD" />
        <path
            d="M236 163.5C236 164.328 235.328 165 234.5 165C233.672 165 233 164.328 233 163.5C233 162.672 233.672 162 234.5 162C235.328 162 236 162.672 236 163.5Z"
            fill="#D0D5DD" />
        <path
            d="M255 163.5C255 164.328 254.328 165 253.5 165C252.672 165 252 164.328 252 163.5C252 162.672 252.672 162 253.5 162C254.328 162 255 162.672 255 163.5Z"
            fill="#D0D5DD" />
        <path
            d="M274 163.5C274 164.328 273.328 165 272.5 165C271.672 165 271 164.328 271 163.5C271 162.672 271.672 162 272.5 162C273.328 162 274 162.672 274 163.5Z"
            fill="#D0D5DD" />
        <path
            d="M293 163.5C293 164.328 292.328 165 291.5 165C290.672 165 290 164.328 290 163.5C290 162.672 290.672 162 291.5 162C292.328 162 293 162.672 293 163.5Z"
            fill="#D0D5DD" />
        <path
            d="M312 163.5C312 164.328 311.328 165 310.5 165C309.672 165 309 164.328 309 163.5C309 162.672 309.672 162 310.5 162C311.328 162 312 162.672 312 163.5Z"
            fill="#D0D5DD" />
        <path
            d="M331 163.5C331 164.328 330.328 165 329.5 165C328.672 165 328 164.328 328 163.5C328 162.672 328.672 162 329.5 162C330.328 162 331 162.672 331 163.5Z"
            fill="#D0D5DD" />
        <path
            d="M8 182.5C8 183.328 7.32843 184 6.5 184C5.67157 184 5 183.328 5 182.5C5 181.672 5.67157 181 6.5 181C7.32843 181 8 181.672 8 182.5Z"
            fill="#D0D5DD" />
        <path
            d="M27 182.5C27 183.328 26.3284 184 25.5 184C24.6716 184 24 183.328 24 182.5C24 181.672 24.6716 181 25.5 181C26.3284 181 27 181.672 27 182.5Z"
            fill="#D0D5DD" />
        <path
            d="M46 182.5C46 183.328 45.3284 184 44.5 184C43.6716 184 43 183.328 43 182.5C43 181.672 43.6716 181 44.5 181C45.3284 181 46 181.672 46 182.5Z"
            fill="#D0D5DD" />
        <path
            d="M65 182.5C65 183.328 64.3284 184 63.5 184C62.6716 184 62 183.328 62 182.5C62 181.672 62.6716 181 63.5 181C64.3284 181 65 181.672 65 182.5Z"
            fill="#D0D5DD" />
        <path
            d="M84 182.5C84 183.328 83.3284 184 82.5 184C81.6716 184 81 183.328 81 182.5C81 181.672 81.6716 181 82.5 181C83.3284 181 84 181.672 84 182.5Z"
            fill="#D0D5DD" />
        <path
            d="M103 182.5C103 183.328 102.328 184 101.5 184C100.672 184 100 183.328 100 182.5C100 181.672 100.672 181 101.5 181C102.328 181 103 181.672 103 182.5Z"
            fill="#D0D5DD" />
        <path
            d="M122 182.5C122 183.328 121.328 184 120.5 184C119.672 184 119 183.328 119 182.5C119 181.672 119.672 181 120.5 181C121.328 181 122 181.672 122 182.5Z"
            fill="#D0D5DD" />
        <path
            d="M141 182.5C141 183.328 140.328 184 139.5 184C138.672 184 138 183.328 138 182.5C138 181.672 138.672 181 139.5 181C140.328 181 141 181.672 141 182.5Z"
            fill="#D0D5DD" />
        <path
            d="M160 182.5C160 183.328 159.328 184 158.5 184C157.672 184 157 183.328 157 182.5C157 181.672 157.672 181 158.5 181C159.328 181 160 181.672 160 182.5Z"
            fill="#D0D5DD" />
        <path
            d="M179 182.5C179 183.328 178.328 184 177.5 184C176.672 184 176 183.328 176 182.5C176 181.672 176.672 181 177.5 181C178.328 181 179 181.672 179 182.5Z"
            fill="#D0D5DD" />
        <path
            d="M198 182.5C198 183.328 197.328 184 196.5 184C195.672 184 195 183.328 195 182.5C195 181.672 195.672 181 196.5 181C197.328 181 198 181.672 198 182.5Z"
            fill="#D0D5DD" />
        <path
            d="M217 182.5C217 183.328 216.328 184 215.5 184C214.672 184 214 183.328 214 182.5C214 181.672 214.672 181 215.5 181C216.328 181 217 181.672 217 182.5Z"
            fill="#D0D5DD" />
        <path
            d="M236 182.5C236 183.328 235.328 184 234.5 184C233.672 184 233 183.328 233 182.5C233 181.672 233.672 181 234.5 181C235.328 181 236 181.672 236 182.5Z"
            fill="#D0D5DD" />
        <path
            d="M255 182.5C255 183.328 254.328 184 253.5 184C252.672 184 252 183.328 252 182.5C252 181.672 252.672 181 253.5 181C254.328 181 255 181.672 255 182.5Z"
            fill="#D0D5DD" />
        <path
            d="M274 182.5C274 183.328 273.328 184 272.5 184C271.672 184 271 183.328 271 182.5C271 181.672 271.672 181 272.5 181C273.328 181 274 181.672 274 182.5Z"
            fill="#D0D5DD" />
        <path
            d="M293 182.5C293 183.328 292.328 184 291.5 184C290.672 184 290 183.328 290 182.5C290 181.672 290.672 181 291.5 181C292.328 181 293 181.672 293 182.5Z"
            fill="#D0D5DD" />
        <path
            d="M312 182.5C312 183.328 311.328 184 310.5 184C309.672 184 309 183.328 309 182.5C309 181.672 309.672 181 310.5 181C311.328 181 312 181.672 312 182.5Z"
            fill="#D0D5DD" />
        <path
            d="M331 182.5C331 183.328 330.328 184 329.5 184C328.672 184 328 183.328 328 182.5C328 181.672 328.672 181 329.5 181C330.328 181 331 181.672 331 182.5Z"
            fill="#D0D5DD" />
        <path
            d="M8 201.5C8 202.328 7.32843 203 6.5 203C5.67157 203 5 202.328 5 201.5C5 200.672 5.67157 200 6.5 200C7.32843 200 8 200.672 8 201.5Z"
            fill="#D0D5DD" />
        <path
            d="M27 201.5C27 202.328 26.3284 203 25.5 203C24.6716 203 24 202.328 24 201.5C24 200.672 24.6716 200 25.5 200C26.3284 200 27 200.672 27 201.5Z"
            fill="#D0D5DD" />
        <path
            d="M46 201.5C46 202.328 45.3284 203 44.5 203C43.6716 203 43 202.328 43 201.5C43 200.672 43.6716 200 44.5 200C45.3284 200 46 200.672 46 201.5Z"
            fill="#D0D5DD" />
        <path
            d="M65 201.5C65 202.328 64.3284 203 63.5 203C62.6716 203 62 202.328 62 201.5C62 200.672 62.6716 200 63.5 200C64.3284 200 65 200.672 65 201.5Z"
            fill="#D0D5DD" />
        <path
            d="M84 201.5C84 202.328 83.3284 203 82.5 203C81.6716 203 81 202.328 81 201.5C81 200.672 81.6716 200 82.5 200C83.3284 200 84 200.672 84 201.5Z"
            fill="#D0D5DD" />
        <path
            d="M103 201.5C103 202.328 102.328 203 101.5 203C100.672 203 100 202.328 100 201.5C100 200.672 100.672 200 101.5 200C102.328 200 103 200.672 103 201.5Z"
            fill="#D0D5DD" />
        <path
            d="M122 201.5C122 202.328 121.328 203 120.5 203C119.672 203 119 202.328 119 201.5C119 200.672 119.672 200 120.5 200C121.328 200 122 200.672 122 201.5Z"
            fill="#D0D5DD" />
        <path
            d="M141 201.5C141 202.328 140.328 203 139.5 203C138.672 203 138 202.328 138 201.5C138 200.672 138.672 200 139.5 200C140.328 200 141 200.672 141 201.5Z"
            fill="#D0D5DD" />
        <path
            d="M160 201.5C160 202.328 159.328 203 158.5 203C157.672 203 157 202.328 157 201.5C157 200.672 157.672 200 158.5 200C159.328 200 160 200.672 160 201.5Z"
            fill="#D0D5DD" />
        <path
            d="M179 201.5C179 202.328 178.328 203 177.5 203C176.672 203 176 202.328 176 201.5C176 200.672 176.672 200 177.5 200C178.328 200 179 200.672 179 201.5Z"
            fill="#D0D5DD" />
        <path
            d="M198 201.5C198 202.328 197.328 203 196.5 203C195.672 203 195 202.328 195 201.5C195 200.672 195.672 200 196.5 200C197.328 200 198 200.672 198 201.5Z"
            fill="#D0D5DD" />
        <path
            d="M217 201.5C217 202.328 216.328 203 215.5 203C214.672 203 214 202.328 214 201.5C214 200.672 214.672 200 215.5 200C216.328 200 217 200.672 217 201.5Z"
            fill="#D0D5DD" />
        <path
            d="M236 201.5C236 202.328 235.328 203 234.5 203C233.672 203 233 202.328 233 201.5C233 200.672 233.672 200 234.5 200C235.328 200 236 200.672 236 201.5Z"
            fill="#D0D5DD" />
        <path
            d="M255 201.5C255 202.328 254.328 203 253.5 203C252.672 203 252 202.328 252 201.5C252 200.672 252.672 200 253.5 200C254.328 200 255 200.672 255 201.5Z"
            fill="#D0D5DD" />
        <path
            d="M274 201.5C274 202.328 273.328 203 272.5 203C271.672 203 271 202.328 271 201.5C271 200.672 271.672 200 272.5 200C273.328 200 274 200.672 274 201.5Z"
            fill="#D0D5DD" />
        <path
            d="M293 201.5C293 202.328 292.328 203 291.5 203C290.672 203 290 202.328 290 201.5C290 200.672 290.672 200 291.5 200C292.328 200 293 200.672 293 201.5Z"
            fill="#D0D5DD" />
        <path
            d="M312 201.5C312 202.328 311.328 203 310.5 203C309.672 203 309 202.328 309 201.5C309 200.672 309.672 200 310.5 200C311.328 200 312 200.672 312 201.5Z"
            fill="#D0D5DD" />
        <path
            d="M331 201.5C331 202.328 330.328 203 329.5 203C328.672 203 328 202.328 328 201.5C328 200.672 328.672 200 329.5 200C330.328 200 331 200.672 331 201.5Z"
            fill="#D0D5DD" />
    </g>
    <defs>
        <radialGradient id="paint0_radial_9308_5988" cx="0" cy="0" r="1"
            gradientUnits="userSpaceOnUse"
            gradientTransform="translate(168 168) rotate(90) scale(168 168)">
            <stop />
            <stop offset="1" stop-opacity="0" />
        </radialGradient>
    </defs>
</svg>
    