<svg width="32" height="32" viewBox="0 0 32 32" fill="none" xmlns="http://www.w3.org/2000/svg">
<path d="M0 16C0 7.16344 7.16344 0 16 0C24.8366 0 32 7.16344 32 16C32 24.8366 24.8366 32 16 32C7.16344 32 0 24.8366 0 16Z" fill="#BCC0D2"/>
<g clip-path="url(#clip0_9414_5711)">
<path d="M13.9999 14.0002H14.0066M17.9999 18.0002H18.0066M18.6666 13.3335L13.3333 18.6668M14.3333 14.0002C14.3333 14.1843 14.184 14.3335 13.9999 14.3335C13.8158 14.3335 13.6666 14.1843 13.6666 14.0002C13.6666 13.8161 13.8158 13.6668 13.9999 13.6668C14.184 13.6668 14.3333 13.8161 14.3333 14.0002ZM18.3333 18.0002C18.3333 18.1843 18.184 18.3335 17.9999 18.3335C17.8158 18.3335 17.6666 18.1843 17.6666 18.0002C17.6666 17.8161 17.8158 17.6668 17.9999 17.6668C18.184 17.6668 18.3333 17.8161 18.3333 18.0002ZM22.6666 16.0002C22.6666 19.6821 19.6818 22.6668 15.9999 22.6668C12.318 22.6668 9.33325 19.6821 9.33325 16.0002C9.33325 12.3183 12.318 9.3335 15.9999 9.3335C19.6818 9.3335 22.6666 12.3183 22.6666 16.0002Z" stroke="#2B3366" stroke-width="1.33333" stroke-linecap="round" stroke-linejoin="round"/>
</g>
<defs>
<clipPath id="clip0_9414_5711">
<rect width="16" height="16" fill="white" transform="translate(8 8)"/>
</clipPath>
</defs>
</svg>
