<svg width="48" height="48" viewBox="0 0 48 48" fill="none" xmlns="http://www.w3.org/2000/svg">
<g clip-path="url(#clip0_9435_5251)">
<path d="M24 48C37.2548 48 48 37.2548 48 24C48 10.7452 37.2548 0 24 0C10.7452 0 0 10.7452 0 24C0 37.2548 10.7452 48 24 48Z" fill="#FF4500"/>
<path d="M40.0005 24.0001C40.0005 22.0632 38.4286 20.4913 36.4917 20.4913C35.5373 20.4913 34.6952 20.8562 34.0777 21.4738C31.6917 19.7615 28.3794 18.6387 24.7303 18.4983L26.3303 11.0036L31.5233 12.0983C31.5794 13.4176 32.6742 14.4843 34.0216 14.4843C35.397 14.4843 36.5198 13.3615 36.5198 11.986C36.5198 10.6106 35.397 9.48779 34.0216 9.48779C33.0391 9.48779 32.197 10.0492 31.804 10.8913L25.9935 9.65622C25.8251 9.62815 25.6566 9.65621 25.5163 9.74042C25.3759 9.82464 25.2917 9.96499 25.2356 10.1334L23.4672 18.4983C19.7338 18.6106 16.3935 19.7053 13.9794 21.4738C13.3619 20.8843 12.4917 20.4913 11.5654 20.4913C9.62857 20.4913 8.05664 22.0632 8.05664 24.0001C8.05664 25.4317 8.89875 26.6387 10.1338 27.2001C10.0777 27.5369 10.0496 27.9018 10.0496 28.2667C10.0496 33.6562 16.3093 38.0071 24.0566 38.0071C31.804 38.0071 38.0637 33.6562 38.0637 28.2667C38.0637 27.9018 38.0356 27.565 37.9794 27.2281C39.1303 26.6667 40.0005 25.4317 40.0005 24.0001ZM16.0005 26.4983C16.0005 25.1229 17.1233 24.0001 18.4987 24.0001C19.8742 24.0001 20.997 25.1229 20.997 26.4983C20.997 27.8738 19.8742 28.9966 18.4987 28.9966C17.1233 28.9966 16.0005 27.8738 16.0005 26.4983ZM29.9514 33.0948C28.2391 34.8071 24.983 34.9194 24.0286 34.9194C23.0742 34.9194 19.79 34.779 18.1058 33.0948C17.8531 32.8422 17.8531 32.4211 18.1058 32.1685C18.3584 31.9159 18.7794 31.9159 19.0321 32.1685C20.0987 33.2352 22.4005 33.6281 24.0566 33.6281C25.7128 33.6281 27.9865 33.2352 29.0812 32.1685C29.3338 31.9159 29.7549 31.9159 30.0075 32.1685C30.204 32.4492 30.204 32.8422 29.9514 33.0948ZM29.5023 28.9966C28.1268 28.9966 27.004 27.8738 27.004 26.4983C27.004 25.1229 28.1268 24.0001 29.5023 24.0001C30.8777 24.0001 32.0005 25.1229 32.0005 26.4983C32.0005 27.8738 30.8777 28.9966 29.5023 28.9966Z" fill="white"/>
</g>
<defs>
<clipPath id="clip0_9435_5251">
<rect width="48" height="48" fill="white"/>
</clipPath>
</defs>
</svg>
