<svg width="32" height="32" viewBox="0 0 32 32" fill="none" xmlns="http://www.w3.org/2000/svg">
<g clip-path="url(#clip0_9308_14018)">
<path d="M24.711 5.66938C24.711 5.66897 24.7115 5.66884 24.7117 5.66922C25.0159 6.40327 25.5988 6.98671 26.3327 7.29145L28.9085 8.35837C29.6436 8.66285 30.2276 9.24688 30.5321 9.98196C30.8366 10.717 30.8366 11.543 30.5321 12.2781L29.4659 14.852C29.1613 15.5874 29.1609 16.4142 29.4669 17.1492L30.5312 19.7224C30.6821 20.0865 30.7598 20.4767 30.7599 20.8708C30.76 21.265 30.6824 21.6553 30.5315 22.0194C30.3807 22.3835 30.1596 22.7143 29.8809 22.993C29.6022 23.2716 29.2712 23.4926 28.9071 23.6433L26.3331 24.7095C25.5981 25.0134 25.0139 25.5968 24.7088 26.3314L23.6419 28.9071C23.3374 29.6422 22.7534 30.2262 22.0183 30.5307C21.2832 30.8352 20.4573 30.8352 19.7222 30.5307L17.1483 29.4646C16.4132 29.1608 15.5876 29.1614 14.8529 29.4663L12.2771 30.5317C11.5425 30.8355 10.7172 30.8352 9.98276 30.531C9.24828 30.2267 8.66458 29.6434 8.35989 28.9091L7.29265 26.3326C6.98873 25.5975 6.40536 25.0133 5.67079 24.7083L3.09501 23.6413C2.36025 23.337 1.7764 22.7533 1.47181 22.0187C1.16721 21.284 1.1668 20.4585 1.47066 19.7235L2.53681 17.1496C2.84055 16.4145 2.83993 15.5888 2.53509 14.8542L1.47046 12.2766C1.31952 11.9125 1.2418 11.5222 1.24174 11.1281C1.24167 10.734 1.31927 10.3437 1.4701 9.97956C1.62092 9.61544 1.84202 9.2846 2.12075 9.00595C2.39949 8.72731 2.7304 8.50632 3.09457 8.35561L5.6685 7.28945C6.40289 6.9858 6.98679 6.40316 7.29204 5.66944L8.35896 3.09366C8.66344 2.35857 9.24747 1.77455 9.98255 1.47007C10.7176 1.16559 11.5436 1.16559 12.2787 1.47007L14.8526 2.53623C15.5877 2.83996 16.4133 2.83934 17.148 2.5345L19.7248 1.47172C20.4598 1.16741 21.2856 1.16747 22.0205 1.4719C22.7554 1.77632 23.3394 2.36017 23.6439 3.09507L24.7103 5.66954C24.7105 5.66992 24.711 5.66979 24.711 5.66938Z" fill="#D0D5DD"/>
<path fill-rule="evenodd" clip-rule="evenodd" d="M22.2665 11.8058C22.4803 11.4701 22.5519 11.0631 22.4656 10.6746C22.3794 10.286 22.1423 9.94759 21.8065 9.73383C21.4708 9.52006 21.0638 9.44843 20.6753 9.5347C20.2867 9.62097 19.9483 9.85806 19.7345 10.1938L13.8605 19.4238L11.1725 16.0638C10.924 15.753 10.5622 15.5536 10.1667 15.5095C9.77118 15.4655 9.37436 15.5803 9.06352 15.8288C8.75269 16.0773 8.55331 16.4391 8.50923 16.8347C8.46516 17.2302 8.58001 17.627 8.82852 17.9378L12.8285 22.9378C12.9776 23.1244 13.1691 23.2727 13.387 23.3703C13.6049 23.468 13.843 23.5122 14.0815 23.4993C14.32 23.4864 14.5519 23.4167 14.758 23.2961C14.9641 23.1755 15.1385 23.0074 15.2665 22.8058L22.2665 11.8058Z" fill="white"/>
</g>
<defs>
<clipPath id="clip0_9308_14018">
<rect width="32" height="32" fill="white"/>
</clipPath>
</defs>
</svg>
